<svg xmlns="http://www.w3.org/2000/svg" xmlns:xlink="http://www.w3.org/1999/xlink" width="500" zoomAndPan="magnify" viewBox="0 0 375 374.999991" height="500" preserveAspectRatio="xMidYMid meet" version="1.0"><defs><clipPath id="a36313fa97"><path d="M 45.363281 64.808594 L 329.613281 64.808594 L 329.613281 349.058594 L 45.363281 349.058594 Z M 45.363281 64.808594 " clip-rule="nonzero"/></clipPath></defs><g clip-path="url(#a36313fa97)"><path fill="#415a77" d="M 187.488281 349.058594 C 265.984375 349.058594 329.613281 285.425781 329.613281 206.933594 C 329.613281 128.441406 265.984375 64.808594 187.488281 64.808594 C 108.996094 64.808594 45.363281 128.441406 45.363281 206.933594 C 45.363281 285.425781 108.996094 349.058594 187.488281 349.058594 Z M 174.117188 138.714844 C 165.503906 138.714844 157.632812 143.582031 153.777344 151.285156 L 150.789062 157.265625 C 149.503906 159.832031 146.878906 161.453125 144.007812 161.453125 L 134.429688 161.453125 C 121.871094 161.453125 111.6875 171.636719 111.6875 184.195312 L 111.6875 252.414062 C 111.6875 264.972656 121.871094 275.152344 134.429688 275.152344 L 240.546875 275.152344 C 253.109375 275.152344 263.289062 264.972656 263.289062 252.414062 L 263.289062 184.195312 C 263.289062 171.636719 253.109375 161.453125 240.546875 161.453125 L 230.96875 161.453125 C 228.097656 161.453125 225.472656 159.832031 224.1875 157.265625 L 221.199219 151.285156 C 217.347656 143.582031 209.472656 138.714844 200.859375 138.714844 Z M 187.488281 191.773438 C 174.929688 191.773438 164.75 201.953125 164.75 214.515625 C 164.75 227.074219 174.929688 237.253906 187.488281 237.253906 C 200.046875 237.253906 210.230469 227.074219 210.230469 214.515625 C 210.230469 201.953125 200.046875 191.773438 187.488281 191.773438 Z M 149.589844 214.515625 C 149.589844 193.582031 166.558594 176.613281 187.488281 176.613281 C 208.421875 176.613281 225.390625 193.582031 225.390625 214.515625 C 225.390625 235.445312 208.421875 252.414062 187.488281 252.414062 C 166.558594 252.414062 149.589844 235.445312 149.589844 214.515625 Z M 149.589844 214.515625 " fill-opacity="1" fill-rule="evenodd"/></g></svg>