<svg xmlns="http://www.w3.org/2000/svg" xmlns:xlink="http://www.w3.org/1999/xlink" width="500" zoomAndPan="magnify" viewBox="0 0 375 374.999991" height="500" preserveAspectRatio="xMidYMid meet" version="1.0"><defs><g/></defs><rect x="-37.5" width="450" fill="#ffffff" y="-37.499999" height="449.999989" fill-opacity="1"/><rect x="-37.5" width="450" fill="#ffffff" y="-37.499999" height="449.999989" fill-opacity="1"/><rect x="-37.5" width="450" fill="#ffffff" y="-37.499999" height="449.999989" fill-opacity="1"/><g fill="#110064" fill-opacity="1"><g transform="translate(48.900157, 202.302326)"><g><path d="M 23.800781 0.878906 C 32.601562 0.878906 41.800781 -4.1875 43.714844 -15.238281 L 35.972656 -15.238281 C 34.363281 -8.894531 29.445312 -6.070312 23.585938 -6.070312 C 15.785156 -6.070312 9.5625 -11.71875 9.5625 -20.671875 C 9.5625 -29.476562 15.785156 -35.335938 23.585938 -35.335938 C 29.476562 -35.335938 34.363281 -32.480469 36.003906 -26.136719 L 43.714844 -26.136719 C 41.800781 -37.15625 32.511719 -42.257812 23.800781 -42.257812 C 11.625 -42.257812 2.003906 -32.695312 2.003906 -20.703125 C 2.003906 -8.710938 11.625 0.878906 23.800781 0.878906 Z M 23.800781 0.878906 "/></g></g><g transform="translate(94.647219, 202.302326)"><g><path d="M 18.335938 0.941406 C 26.59375 0.941406 32.96875 -3.429688 32.96875 -14.539062 L 32.96875 -31.207031 L 25.652344 -31.207031 L 25.652344 -14.753906 C 25.652344 -9.046875 23.222656 -5.890625 18.304688 -5.890625 C 13.417969 -5.890625 10.929688 -8.984375 10.929688 -14.753906 L 10.929688 -31.207031 L 3.644531 -31.207031 L 3.644531 -14.539062 C 3.644531 -3.429688 9.988281 0.941406 18.335938 0.941406 Z M 18.335938 0.941406 "/></g></g><g transform="translate(131.257012, 202.302326)"><g><path d="M 7.921875 -36.0625 C 10.898438 -36.0625 12.566406 -37.914062 12.566406 -40.28125 C 12.566406 -42.558594 10.898438 -44.472656 7.953125 -44.472656 C 5.070312 -44.472656 3.398438 -42.558594 3.398438 -40.28125 C 3.398438 -37.945312 5.101562 -36.0625 7.921875 -36.0625 Z M 11.65625 0 L 11.65625 -31.207031 L 4.3125 -31.207031 L 4.3125 0 Z M 11.65625 0 "/></g></g><g transform="translate(147.19411, 202.302326)"><g><path d="M 17.183594 0.941406 C 22.402344 0.941406 26.136719 -1.972656 27.988281 -5.25 L 27.988281 0 L 34.96875 0 L 34.96875 -42.742188 L 27.65625 -42.742188 L 27.65625 -29.355469 L 27.804688 -26.105469 C 26.167969 -29.050781 22.371094 -32.148438 17.273438 -32.148438 C 8.164062 -32.148438 2.09375 -24.710938 2.09375 -15.601562 C 2.09375 -6.4375 8.316406 0.941406 17.183594 0.941406 Z M 18.515625 -5.828125 C 13.144531 -5.828125 9.320312 -10.078125 9.320312 -15.601562 C 9.320312 -21.28125 13.328125 -25.347656 18.515625 -25.347656 C 23.679688 -25.347656 27.714844 -21.066406 27.714844 -15.601562 C 27.714844 -10.078125 23.648438 -5.828125 18.515625 -5.828125 Z M 18.515625 -5.828125 "/></g></g><g transform="translate(186.444907, 202.302326)"><g><path d="M 16.785156 0.941406 C 21.855469 0.941406 25.984375 -1.367188 28.019531 -5.25 L 28.019531 0 L 35 0 L 35 -31.207031 L 28.019531 -31.207031 L 28.019531 -25.925781 C 26.015625 -29.808594 21.855469 -32.148438 16.757812 -32.148438 C 8.410156 -32.148438 2.09375 -24.710938 2.09375 -15.601562 C 2.09375 -6.4375 8.347656 0.941406 16.785156 0.941406 Z M 18.546875 -5.859375 C 13.601562 -5.859375 9.378906 -9.53125 9.378906 -15.601562 C 9.378906 -21.460938 13.507812 -25.347656 18.546875 -25.347656 C 23.648438 -25.347656 27.714844 -21.035156 27.714844 -15.601562 C 27.714844 -10.078125 23.679688 -5.859375 18.546875 -5.859375 Z M 18.546875 -5.859375 "/></g></g><g transform="translate(225.756417, 202.302326)"><g><path d="M 17.183594 0.941406 C 22.402344 0.941406 26.136719 -1.972656 27.988281 -5.25 L 27.988281 0 L 34.96875 0 L 34.96875 -42.742188 L 27.65625 -42.742188 L 27.65625 -29.355469 L 27.804688 -26.105469 C 26.167969 -29.050781 22.371094 -32.148438 17.273438 -32.148438 C 8.164062 -32.148438 2.09375 -24.710938 2.09375 -15.601562 C 2.09375 -6.4375 8.316406 0.941406 17.183594 0.941406 Z M 18.515625 -5.828125 C 13.144531 -5.828125 9.320312 -10.078125 9.320312 -15.601562 C 9.320312 -21.28125 13.328125 -25.347656 18.515625 -25.347656 C 23.679688 -25.347656 27.714844 -21.066406 27.714844 -15.601562 C 27.714844 -10.078125 23.648438 -5.828125 18.515625 -5.828125 Z M 18.515625 -5.828125 "/></g></g><g transform="translate(265.007214, 202.302326)"><g><path d="M 18.488281 0.941406 C 28.109375 0.941406 35 -6.40625 35 -15.601562 C 35 -24.742188 28.109375 -32.148438 18.515625 -32.148438 C 8.957031 -32.148438 2.09375 -24.710938 2.09375 -15.601562 C 2.09375 -6.4375 8.984375 0.941406 18.488281 0.941406 Z M 18.546875 -5.890625 C 13.296875 -5.890625 9.378906 -9.957031 9.378906 -15.601562 C 9.378906 -21.21875 13.296875 -25.347656 18.546875 -25.347656 C 23.800781 -25.347656 27.714844 -21.21875 27.714844 -15.601562 C 27.714844 -9.957031 23.800781 -5.890625 18.546875 -5.890625 Z M 18.546875 -5.890625 "/></g></g><g transform="translate(302.102708, 202.302326)"><g><path d="M 11.65625 0 L 11.65625 -14.511719 C 11.65625 -21.160156 15.085938 -24.890625 20.125 -24.890625 L 23.070312 -24.890625 L 23.070312 -31.207031 L 19.730469 -31.207031 C 15.664062 -31.207031 12.808594 -28.992188 11.351562 -25.558594 L 11.351562 -31.207031 L 4.3125 -31.207031 L 4.3125 0 Z M 11.65625 0 "/></g></g></g></svg>