<svg xmlns="http://www.w3.org/2000/svg" xmlns:xlink="http://www.w3.org/1999/xlink" width="1920" zoomAndPan="magnify" viewBox="0 0 1440 809.999993" height="1080" preserveAspectRatio="xMidYMid meet" version="1.0"><defs><clipPath id="aea2f1f0c7"><path d="M 632 36.75 L 834 36.75 L 834 743.25 L 632 743.25 Z M 632 36.75 " clip-rule="nonzero"/></clipPath><clipPath id="70c697cf89"><path d="M 831 36.75 L 1012 36.75 L 1012 737 L 831 737 Z M 831 36.75 " clip-rule="nonzero"/></clipPath><clipPath id="323d905809"><path d="M 1009 36.75 L 1194 36.75 L 1194 737 L 1009 737 Z M 1009 36.75 " clip-rule="nonzero"/></clipPath><clipPath id="a61d268264"><path d="M 1191 36.75 L 1395 36.75 L 1395 743.25 L 1191 743.25 Z M 1191 36.75 " clip-rule="nonzero"/></clipPath></defs><g clip-path="url(#aea2f1f0c7)"><path fill="#d3d2d2" d="M 833.253906 684.441406 L 632.125 743.25 L 632.125 95.558594 L 833.253906 36.75 L 833.253906 684.441406 " fill-opacity="1" fill-rule="nonzero"/></g><g clip-path="url(#70c697cf89)"><path fill="#a7a5a5" d="M 831.5 684.441406 L 1011.65625 736.273438 L 1011.65625 88.582031 L 831.5 36.75 L 831.5 684.441406 " fill-opacity="1" fill-rule="nonzero"/></g><g clip-path="url(#323d905809)"><path fill="#d3d2d2" d="M 1193.566406 684.441406 L 1009.902344 736.273438 L 1009.902344 88.582031 L 1193.566406 36.75 L 1193.566406 684.441406 " fill-opacity="1" fill-rule="nonzero"/></g><g clip-path="url(#a61d268264)"><path fill="#a7a5a5" d="M 1191.8125 684.441406 L 1394.695312 743.25 L 1394.695312 95.558594 L 1191.8125 36.75 L 1191.8125 684.441406 " fill-opacity="1" fill-rule="nonzero"/></g><path fill="#ffffff" d="M 833.253906 668.054688 L 653.136719 717.015625 L 653.136719 104.96875 L 833.253906 55.96875 L 833.253906 668.054688 " fill-opacity="1" fill-rule="nonzero"/><path fill="#d3d2d2" d="M 831.5 668.054688 L 1011.65625 717.015625 L 1011.65625 104.96875 L 831.5 55.96875 L 831.5 668.054688 " fill-opacity="1" fill-rule="nonzero"/><path fill="#6e9d2b" d="M 752.667969 195.953125 C 760.839844 154.089844 752.109375 115.65625 731.53125 83.636719 L 653.136719 104.96875 L 653.136719 344.390625 C 702.542969 308.464844 740.785156 256.675781 752.667969 195.953125 " fill-opacity="1" fill-rule="nonzero"/><path fill="#6e9d2b" d="M 830.144531 496.375 C 821.808594 490.195312 811.5625 486.289062 801.515625 484.132812 C 780.9375 479.828125 759.683594 483.734375 739.945312 489.996094 C 709.003906 499.804688 680.613281 516.152344 653.136719 533.574219 L 653.136719 717.015625 L 833.253906 668.054688 L 833.253906 499.085938 C 832.296875 498.128906 831.261719 497.210938 830.144531 496.375 " fill-opacity="1" fill-rule="nonzero"/><path fill="#46551e" d="M 966.4375 641.902344 C 968.03125 613.433594 969.109375 575 949.609375 551.636719 C 936.890625 536.40625 919.824219 540.628906 902.117188 541.867188 C 879.867188 543.382812 859.371094 539.273438 845.136719 520.976562 C 840.191406 514.59375 836.761719 507.019531 831.5 501 L 831.5 668.054688 L 958.382812 702.542969 C 962.609375 682.488281 965.320312 662.15625 966.4375 641.902344 " fill-opacity="1" fill-rule="nonzero"/><path fill="#99def8" d="M 843.101562 83.082031 C 833.253906 119.640625 841.828125 148.027344 869.738281 172.589844 C 888.601562 189.175781 909.015625 203.847656 922.015625 225.933594 C 932.742188 244.234375 933.539062 263.574219 935.253906 284.1875 C 936.050781 293.792969 935.613281 315.683594 946.9375 318.992188 C 961.773438 323.339844 978.082031 306.953125 984.382812 295.707031 C 1005.277344 258.589844 1004.039062 207.992188 1002.164062 166.847656 C 1001.207031 145.277344 999.652344 122.710938 995.945312 100.703125 L 850.71875 61.191406 C 847.730469 68.289062 845.136719 75.585938 843.101562 83.082031 " fill-opacity="1" fill-rule="nonzero"/><path fill="#ffffff" d="M 1193.566406 668.054688 L 1009.902344 717.015625 L 1009.902344 104.96875 L 1193.566406 55.96875 L 1193.566406 668.054688 " fill-opacity="1" fill-rule="nonzero"/><path fill="#d3d2d2" d="M 1191.8125 668.054688 L 1375.4375 717.015625 L 1375.4375 104.96875 L 1191.8125 55.96875 L 1191.8125 668.054688 " fill-opacity="1" fill-rule="nonzero"/><path fill="#6e9d2b" d="M 1074.460938 187.0625 C 1089.210938 235.863281 1149.742188 248.382812 1165.734375 296.546875 C 1170.078125 309.664062 1169.839844 322.339844 1166.808594 335.699219 C 1164.179688 347.261719 1158.238281 358.34375 1164.738281 369.546875 C 1170.558594 379.636719 1181.644531 385.695312 1193.566406 389.441406 L 1193.566406 55.96875 L 1106.199219 79.253906 C 1081.914062 112.027344 1063.132812 149.742188 1074.460938 187.0625 " fill-opacity="1" fill-rule="nonzero"/><path fill="#99def8" d="M 1120.476562 560.328125 C 1079.285156 592.222656 1074.898438 645.730469 1080.957031 698.078125 L 1193.566406 668.054688 L 1193.566406 532.9375 C 1167.289062 534.609375 1141.210938 544.300781 1120.476562 560.328125 " fill-opacity="1" fill-rule="nonzero"/><path fill="#46551e" d="M 1216.335938 394.867188 C 1239.261719 397.777344 1263.148438 397.097656 1285.121094 389.761719 C 1310.121094 381.390625 1332.53125 368.3125 1359.207031 365.242188 C 1364.75 364.605469 1370.132812 364.445312 1375.4375 364.605469 L 1375.4375 104.96875 L 1191.8125 55.96875 L 1191.8125 390 C 1200.183594 392.472656 1208.839844 393.910156 1216.335938 394.867188 " fill-opacity="1" fill-rule="nonzero"/><path fill="#6dd0f5" d="M 1312.554688 637.714844 C 1304.660156 601.75 1287.710938 566.867188 1254.457031 547.367188 C 1235.394531 536.246094 1213.582031 531.738281 1191.8125 532.816406 L 1191.8125 668.054688 L 1319.011719 701.984375 C 1318.972656 680.375 1317.21875 658.804688 1312.554688 637.714844 " fill-opacity="1" fill-rule="nonzero"/><path fill="#f8a227" d="M 1302.585938 470.898438 C 1285.796875 471.617188 1269.609375 475.5625 1253.9375 479.351562 C 1240.777344 482.539062 1228.378906 485.570312 1215.65625 486.847656 C 1167.449219 491.671875 1131.601562 466.273438 1121.074219 438.722656 C 1119.320312 434.21875 1118.082031 429.394531 1116.765625 424.289062 C 1114.414062 415.4375 1112.019531 406.269531 1106.878906 397.777344 C 1096.03125 379.753906 1068.277344 361.414062 1025.8125 369.070312 C 1010.300781 371.859375 995.664062 377.28125 981.511719 382.546875 C 970.34375 386.730469 959.777344 390.640625 948.851562 393.390625 C 910.09375 403.078125 869.738281 395.78125 840.910156 373.855469 C 810.484375 350.6875 794.972656 310.421875 803.226562 275.933594 C 805.183594 267.917969 808.210938 260.222656 811.441406 252.050781 C 813.355469 247.144531 815.390625 242.082031 817.105469 236.898438 C 834.449219 184.429688 810.84375 116.53125 777.867188 72.15625 C 771.488281 74.347656 765.027344 76.261719 758.488281 78.058594 C 791.785156 119.640625 814.992188 184.351562 799.242188 230.839844 C 797.605469 235.585938 795.8125 240.207031 793.859375 245.113281 C 790.546875 253.566406 787.117188 262.257812 784.886719 271.546875 C 774.957031 313.050781 793.257812 361.335938 829.507812 388.84375 C 862.839844 414.242188 909.136719 422.734375 953.4375 411.691406 C 965.402344 408.699219 976.925781 404.394531 988.089844 400.246094 C 1002.085938 395.066406 1015.285156 390.121094 1029.160156 387.648438 C 1051.449219 383.621094 1079.125 388.207031 1090.726562 407.464844 C 1094.476562 413.683594 1096.390625 421.140625 1098.464844 429.074219 C 1099.898438 434.457031 1101.335938 440 1103.449219 445.460938 C 1120.753906 490.714844 1174.027344 509.972656 1217.53125 505.625 C 1231.566406 504.230469 1245.203125 500.878906 1258.402344 497.691406 C 1273.835938 493.941406 1288.429688 490.394531 1303.382812 489.714844 L 1304.417969 489.714844 C 1326.550781 489.714844 1364.910156 519.820312 1375.554688 544.101562 L 1375.554688 510.726562 C 1354.582031 487.683594 1323.082031 469.980469 1302.585938 470.898438 " fill-opacity="1" fill-rule="nonzero"/><path fill="#f8a227" d="M 1045.46875 601.671875 C 1050.453125 594.496094 1055.597656 587.039062 1058.828125 578.148438 C 1067.679688 553.628906 1057.234375 523.765625 1035.0625 510.128906 C 1015.164062 497.890625 992.636719 499.722656 970.863281 501.519531 C 956.828125 502.675781 943.628906 503.789062 931.347656 501.320312 C 915.796875 498.167969 904.589844 485.210938 892.746094 471.496094 C 880.824219 457.660156 868.464844 443.347656 850.082031 436.570312 C 790.746094 414.679688 712.910156 429.832031 652.578125 456.785156 L 652.578125 477.554688 C 711.476562 449.605469 788.875 434.097656 843.582031 454.273438 C 857.378906 459.335938 867.625 471.21875 878.472656 483.816406 C 891.871094 499.367188 905.707031 515.433594 927.640625 519.820312 C 942.511719 522.808594 957.703125 521.53125 972.378906 520.335938 C 991.996094 518.742188 1010.539062 517.1875 1025.171875 526.199219 C 1039.769531 535.207031 1046.90625 555.621094 1041.082031 571.730469 C 1038.691406 578.347656 1034.464844 584.449219 1029.957031 590.945312 C 1027.007812 595.214844 1023.9375 599.597656 1021.265625 604.382812 C 1001.925781 638.910156 1009.261719 680.175781 1026.929688 711.832031 C 1033.148438 709.960938 1039.449219 708.285156 1045.828125 706.769531 C 1029.160156 679.578125 1021.1875 643.21875 1037.734375 613.59375 C 1039.96875 609.605469 1042.640625 605.738281 1045.46875 601.671875 " fill-opacity="1" fill-rule="nonzero"/><path fill="#f25946" d="M 1323.679688 299.375 C 1323.679688 354.117188 1265.300781 491.273438 1224.507812 491.273438 C 1185.3125 491.273438 1125.339844 354.117188 1125.339844 299.375 C 1125.339844 244.59375 1169.722656 200.21875 1224.507812 200.21875 C 1279.257812 200.21875 1323.679688 244.59375 1323.679688 299.375 " fill-opacity="1" fill-rule="nonzero"/><path fill="#ffffff" d="M 1283.683594 307.390625 C 1283.683594 340.042969 1257.167969 366.519531 1224.507812 366.519531 C 1191.8125 366.519531 1165.335938 340.042969 1165.335938 307.390625 C 1165.335938 274.695312 1191.8125 248.183594 1224.507812 248.183594 C 1257.167969 248.183594 1283.683594 274.695312 1283.683594 307.390625 " fill-opacity="1" fill-rule="nonzero"/></svg>