<svg xmlns="http://www.w3.org/2000/svg" xmlns:xlink="http://www.w3.org/1999/xlink" width="500" zoomAndPan="magnify" viewBox="0 0 375 374.999991" height="500" preserveAspectRatio="xMidYMid meet" version="1.0"><defs><clipPath id="3800591bff"><path d="M 132.949219 80 L 232 80 L 232 242 L 132.949219 242 Z M 132.949219 80 " clip-rule="nonzero"/></clipPath><clipPath id="27f3e2b7ff"><path d="M 353.804688 184.578125 C 370.535156 221.917969 341.914062 264.726562 305.976562 270.550781 C 292.851562 272.675781 276.957031 273.375 257.859375 272.992188 C 149.476562 270.828125 28.171875 249.386719 28.171875 249.386719 C 28.171875 249.386719 0.0351562 205.886719 13.644531 169.753906 C 16.375 162.507812 20.785156 155.558594 27.433594 149.316406 C 31.179688 145.796875 35.640625 142.503906 40.910156 139.507812 C 41.75 139.03125 42.609375 138.5625 43.488281 138.101562 C 44.84375 137.390625 46.183594 136.703125 47.507812 136.042969 C 87.035156 116.308594 111.648438 118.605469 137.527344 113.546875 C 144.144531 112.253906 150.839844 110.480469 157.890625 107.742188 C 166.6875 104.316406 176.039062 99.375 186.460938 91.96875 C 214.765625 71.859375 257.246094 77.445312 295.082031 106.898438 C 301.273438 111.714844 307.335938 117.167969 313.191406 123.253906 C 323.792969 134.265625 333.71875 147.339844 342.480469 162.429688 C 346.441406 169.253906 350.164062 176.484375 353.601562 184.125 C 353.667969 184.277344 353.738281 184.425781 353.804688 184.578125 Z M 353.804688 184.578125 " clip-rule="nonzero"/></clipPath><clipPath id="c6ab598faa"><path d="M 178.273438 80 L 183 80 L 183 242 L 178.273438 242 Z M 178.273438 80 " clip-rule="nonzero"/></clipPath><clipPath id="63725ac092"><path d="M 353.804688 184.578125 C 370.535156 221.917969 341.914062 264.726562 305.976562 270.550781 C 292.851562 272.675781 276.957031 273.375 257.859375 272.992188 C 149.476562 270.828125 28.171875 249.386719 28.171875 249.386719 C 28.171875 249.386719 0.0351562 205.886719 13.644531 169.753906 C 16.375 162.507812 20.785156 155.558594 27.433594 149.316406 C 31.179688 145.796875 35.640625 142.503906 40.910156 139.507812 C 41.75 139.03125 42.609375 138.5625 43.488281 138.101562 C 44.84375 137.390625 46.183594 136.703125 47.507812 136.042969 C 87.035156 116.308594 111.648438 118.605469 137.527344 113.546875 C 144.144531 112.253906 150.839844 110.480469 157.890625 107.742188 C 166.6875 104.316406 176.039062 99.375 186.460938 91.96875 C 214.765625 71.859375 257.246094 77.445312 295.082031 106.898438 C 301.273438 111.714844 307.335938 117.167969 313.191406 123.253906 C 323.792969 134.265625 333.71875 147.339844 342.480469 162.429688 C 346.441406 169.253906 350.164062 176.484375 353.601562 184.125 C 353.667969 184.277344 353.738281 184.425781 353.804688 184.578125 Z M 353.804688 184.578125 " clip-rule="nonzero"/></clipPath><clipPath id="1666c9e9da"><path d="M 231.507812 80 L 237.984375 80 L 237.984375 239.859375 L 231.507812 239.859375 Z M 231.507812 80 " clip-rule="nonzero"/></clipPath><clipPath id="1879bd67d6"><path d="M 353.804688 184.578125 C 370.535156 221.917969 341.914062 264.726562 305.976562 270.550781 C 292.851562 272.675781 276.957031 273.375 257.859375 272.992188 C 149.476562 270.828125 28.171875 249.386719 28.171875 249.386719 C 28.171875 249.386719 0.0351562 205.886719 13.644531 169.753906 C 16.375 162.507812 20.785156 155.558594 27.433594 149.316406 C 31.179688 145.796875 35.640625 142.503906 40.910156 139.507812 C 41.75 139.03125 42.609375 138.5625 43.488281 138.101562 C 44.84375 137.390625 46.183594 136.703125 47.507812 136.042969 C 87.035156 116.308594 111.648438 118.605469 137.527344 113.546875 C 144.144531 112.253906 150.839844 110.480469 157.890625 107.742188 C 166.6875 104.316406 176.039062 99.375 186.460938 91.96875 C 214.765625 71.859375 257.246094 77.445312 295.082031 106.898438 C 301.273438 111.714844 307.335938 117.167969 313.191406 123.253906 C 323.792969 134.265625 333.71875 147.339844 342.480469 162.429688 C 346.441406 169.253906 350.164062 176.484375 353.601562 184.125 C 353.667969 184.277344 353.738281 184.425781 353.804688 184.578125 Z M 353.804688 184.578125 " clip-rule="nonzero"/></clipPath><clipPath id="9c8461e879"><path d="M 237.265625 80 L 358.84375 80 L 358.84375 242 L 237.265625 242 Z M 237.265625 80 " clip-rule="nonzero"/></clipPath><clipPath id="0bc27a499b"><path d="M 353.804688 184.578125 C 370.535156 221.917969 341.914062 264.726562 305.976562 270.550781 C 292.851562 272.675781 276.957031 273.375 257.859375 272.992188 C 149.476562 270.828125 28.171875 249.386719 28.171875 249.386719 C 28.171875 249.386719 0.0351562 205.886719 13.644531 169.753906 C 16.375 162.507812 20.785156 155.558594 27.433594 149.316406 C 31.179688 145.796875 35.640625 142.503906 40.910156 139.507812 C 41.75 139.03125 42.609375 138.5625 43.488281 138.101562 C 44.84375 137.390625 46.183594 136.703125 47.507812 136.042969 C 87.035156 116.308594 111.648438 118.605469 137.527344 113.546875 C 144.144531 112.253906 150.839844 110.480469 157.890625 107.742188 C 166.6875 104.316406 176.039062 99.375 186.460938 91.96875 C 214.765625 71.859375 257.246094 77.445312 295.082031 106.898438 C 301.273438 111.714844 307.335938 117.167969 313.191406 123.253906 C 323.792969 134.265625 333.71875 147.339844 342.480469 162.429688 C 346.441406 169.253906 350.164062 176.484375 353.601562 184.125 C 353.667969 184.277344 353.738281 184.425781 353.804688 184.578125 Z M 353.804688 184.578125 " clip-rule="nonzero"/></clipPath><clipPath id="f41b1b85a5"><path d="M 237.265625 80 L 301 80 L 301 164 L 237.265625 164 Z M 237.265625 80 " clip-rule="nonzero"/></clipPath><clipPath id="de98f55a7f"><path d="M 353.804688 184.578125 C 370.535156 221.917969 341.914062 264.726562 305.976562 270.550781 C 292.851562 272.675781 276.957031 273.375 257.859375 272.992188 C 149.476562 270.828125 28.171875 249.386719 28.171875 249.386719 C 28.171875 249.386719 0.0351562 205.886719 13.644531 169.753906 C 16.375 162.507812 20.785156 155.558594 27.433594 149.316406 C 31.179688 145.796875 35.640625 142.503906 40.910156 139.507812 C 41.75 139.03125 42.609375 138.5625 43.488281 138.101562 C 44.84375 137.390625 46.183594 136.703125 47.507812 136.042969 C 87.035156 116.308594 111.648438 118.605469 137.527344 113.546875 C 144.144531 112.253906 150.839844 110.480469 157.890625 107.742188 C 166.6875 104.316406 176.039062 99.375 186.460938 91.96875 C 214.765625 71.859375 257.246094 77.445312 295.082031 106.898438 C 301.273438 111.714844 307.335938 117.167969 313.191406 123.253906 C 323.792969 134.265625 333.71875 147.339844 342.480469 162.429688 C 346.441406 169.253906 350.164062 176.484375 353.601562 184.125 C 353.667969 184.277344 353.738281 184.425781 353.804688 184.578125 Z M 353.804688 184.578125 " clip-rule="nonzero"/></clipPath><clipPath id="6a82c82969"><path d="M 237.265625 80 L 358 80 L 358 242 L 237.265625 242 Z M 237.265625 80 " clip-rule="nonzero"/></clipPath><clipPath id="4e802110a9"><path d="M 353.804688 184.578125 C 370.535156 221.917969 341.914062 264.726562 305.976562 270.550781 C 292.851562 272.675781 276.957031 273.375 257.859375 272.992188 C 149.476562 270.828125 28.171875 249.386719 28.171875 249.386719 C 28.171875 249.386719 0.0351562 205.886719 13.644531 169.753906 C 16.375 162.507812 20.785156 155.558594 27.433594 149.316406 C 31.179688 145.796875 35.640625 142.503906 40.910156 139.507812 C 41.75 139.03125 42.609375 138.5625 43.488281 138.101562 C 44.84375 137.390625 46.183594 136.703125 47.507812 136.042969 C 87.035156 116.308594 111.648438 118.605469 137.527344 113.546875 C 144.144531 112.253906 150.839844 110.480469 157.890625 107.742188 C 166.6875 104.316406 176.039062 99.375 186.460938 91.96875 C 214.765625 71.859375 257.246094 77.445312 295.082031 106.898438 C 301.273438 111.714844 307.335938 117.167969 313.191406 123.253906 C 323.792969 134.265625 333.71875 147.339844 342.480469 162.429688 C 346.441406 169.253906 350.164062 176.484375 353.601562 184.125 C 353.667969 184.277344 353.738281 184.425781 353.804688 184.578125 Z M 353.804688 184.578125 " clip-rule="nonzero"/></clipPath><clipPath id="497dc20d50"><path d="M 294.097656 133.484375 L 358.84375 133.484375 L 358.84375 242 L 294.097656 242 Z M 294.097656 133.484375 " clip-rule="nonzero"/></clipPath><clipPath id="6dbf16eeae"><path d="M 353.804688 184.578125 C 370.535156 221.917969 341.914062 264.726562 305.976562 270.550781 C 292.851562 272.675781 276.957031 273.375 257.859375 272.992188 C 149.476562 270.828125 28.171875 249.386719 28.171875 249.386719 C 28.171875 249.386719 0.0351562 205.886719 13.644531 169.753906 C 16.375 162.507812 20.785156 155.558594 27.433594 149.316406 C 31.179688 145.796875 35.640625 142.503906 40.910156 139.507812 C 41.75 139.03125 42.609375 138.5625 43.488281 138.101562 C 44.84375 137.390625 46.183594 136.703125 47.507812 136.042969 C 87.035156 116.308594 111.648438 118.605469 137.527344 113.546875 C 144.144531 112.253906 150.839844 110.480469 157.890625 107.742188 C 166.6875 104.316406 176.039062 99.375 186.460938 91.96875 C 214.765625 71.859375 257.246094 77.445312 295.082031 106.898438 C 301.273438 111.714844 307.335938 117.167969 313.191406 123.253906 C 323.792969 134.265625 333.71875 147.339844 342.480469 162.429688 C 346.441406 169.253906 350.164062 176.484375 353.601562 184.125 C 353.667969 184.277344 353.738281 184.425781 353.804688 184.578125 Z M 353.804688 184.578125 " clip-rule="nonzero"/></clipPath><clipPath id="97f9865f76"><path d="M 299.132812 135.640625 L 335 135.640625 L 335 156.484375 L 299.132812 156.484375 Z M 299.132812 135.640625 " clip-rule="nonzero"/></clipPath><clipPath id="f2d29d767b"><path d="M 353.804688 184.578125 C 370.535156 221.917969 341.914062 264.726562 305.976562 270.550781 C 292.851562 272.675781 276.957031 273.375 257.859375 272.992188 C 149.476562 270.828125 28.171875 249.386719 28.171875 249.386719 C 28.171875 249.386719 0.0351562 205.886719 13.644531 169.753906 C 16.375 162.507812 20.785156 155.558594 27.433594 149.316406 C 31.179688 145.796875 35.640625 142.503906 40.910156 139.507812 C 41.75 139.03125 42.609375 138.5625 43.488281 138.101562 C 44.84375 137.390625 46.183594 136.703125 47.507812 136.042969 C 87.035156 116.308594 111.648438 118.605469 137.527344 113.546875 C 144.144531 112.253906 150.839844 110.480469 157.890625 107.742188 C 166.6875 104.316406 176.039062 99.375 186.460938 91.96875 C 214.765625 71.859375 257.246094 77.445312 295.082031 106.898438 C 301.273438 111.714844 307.335938 117.167969 313.191406 123.253906 C 323.792969 134.265625 333.71875 147.339844 342.480469 162.429688 C 346.441406 169.253906 350.164062 176.484375 353.601562 184.125 C 353.667969 184.277344 353.738281 184.425781 353.804688 184.578125 Z M 353.804688 184.578125 " clip-rule="nonzero"/></clipPath><clipPath id="b7d5885a7e"><path d="M 304.167969 143 L 310.644531 143 L 310.644531 149.296875 L 304.167969 149.296875 Z M 304.167969 143 " clip-rule="nonzero"/></clipPath><clipPath id="51101e5820"><path d="M 353.804688 184.578125 C 370.535156 221.917969 341.914062 264.726562 305.976562 270.550781 C 292.851562 272.675781 276.957031 273.375 257.859375 272.992188 C 149.476562 270.828125 28.171875 249.386719 28.171875 249.386719 C 28.171875 249.386719 0.0351562 205.886719 13.644531 169.753906 C 16.375 162.507812 20.785156 155.558594 27.433594 149.316406 C 31.179688 145.796875 35.640625 142.503906 40.910156 139.507812 C 41.75 139.03125 42.609375 138.5625 43.488281 138.101562 C 44.84375 137.390625 46.183594 136.703125 47.507812 136.042969 C 87.035156 116.308594 111.648438 118.605469 137.527344 113.546875 C 144.144531 112.253906 150.839844 110.480469 157.890625 107.742188 C 166.6875 104.316406 176.039062 99.375 186.460938 91.96875 C 214.765625 71.859375 257.246094 77.445312 295.082031 106.898438 C 301.273438 111.714844 307.335938 117.167969 313.191406 123.253906 C 323.792969 134.265625 333.71875 147.339844 342.480469 162.429688 C 346.441406 169.253906 350.164062 176.484375 353.601562 184.125 C 353.667969 184.277344 353.738281 184.425781 353.804688 184.578125 Z M 353.804688 184.578125 " clip-rule="nonzero"/></clipPath><clipPath id="a2cf6daa5d"><path d="M 312.082031 143 L 317 143 L 317 149.296875 L 312.082031 149.296875 Z M 312.082031 143 " clip-rule="nonzero"/></clipPath><clipPath id="e0b5ea266b"><path d="M 353.804688 184.578125 C 370.535156 221.917969 341.914062 264.726562 305.976562 270.550781 C 292.851562 272.675781 276.957031 273.375 257.859375 272.992188 C 149.476562 270.828125 28.171875 249.386719 28.171875 249.386719 C 28.171875 249.386719 0.0351562 205.886719 13.644531 169.753906 C 16.375 162.507812 20.785156 155.558594 27.433594 149.316406 C 31.179688 145.796875 35.640625 142.503906 40.910156 139.507812 C 41.75 139.03125 42.609375 138.5625 43.488281 138.101562 C 44.84375 137.390625 46.183594 136.703125 47.507812 136.042969 C 87.035156 116.308594 111.648438 118.605469 137.527344 113.546875 C 144.144531 112.253906 150.839844 110.480469 157.890625 107.742188 C 166.6875 104.316406 176.039062 99.375 186.460938 91.96875 C 214.765625 71.859375 257.246094 77.445312 295.082031 106.898438 C 301.273438 111.714844 307.335938 117.167969 313.191406 123.253906 C 323.792969 134.265625 333.71875 147.339844 342.480469 162.429688 C 346.441406 169.253906 350.164062 176.484375 353.601562 184.125 C 353.667969 184.277344 353.738281 184.425781 353.804688 184.578125 Z M 353.804688 184.578125 " clip-rule="nonzero"/></clipPath><clipPath id="022e62ece4"><path d="M 318.558594 143 L 322.875 143 L 322.875 149.296875 L 318.558594 149.296875 Z M 318.558594 143 " clip-rule="nonzero"/></clipPath><clipPath id="f97dc56fdb"><path d="M 353.804688 184.578125 C 370.535156 221.917969 341.914062 264.726562 305.976562 270.550781 C 292.851562 272.675781 276.957031 273.375 257.859375 272.992188 C 149.476562 270.828125 28.171875 249.386719 28.171875 249.386719 C 28.171875 249.386719 0.0351562 205.886719 13.644531 169.753906 C 16.375 162.507812 20.785156 155.558594 27.433594 149.316406 C 31.179688 145.796875 35.640625 142.503906 40.910156 139.507812 C 41.75 139.03125 42.609375 138.5625 43.488281 138.101562 C 44.84375 137.390625 46.183594 136.703125 47.507812 136.042969 C 87.035156 116.308594 111.648438 118.605469 137.527344 113.546875 C 144.144531 112.253906 150.839844 110.480469 157.890625 107.742188 C 166.6875 104.316406 176.039062 99.375 186.460938 91.96875 C 214.765625 71.859375 257.246094 77.445312 295.082031 106.898438 C 301.273438 111.714844 307.335938 117.167969 313.191406 123.253906 C 323.792969 134.265625 333.71875 147.339844 342.480469 162.429688 C 346.441406 169.253906 350.164062 176.484375 353.601562 184.125 C 353.667969 184.277344 353.738281 184.425781 353.804688 184.578125 Z M 353.804688 184.578125 " clip-rule="nonzero"/></clipPath><clipPath id="454dda6278"><path d="M 324.3125 143 L 330 143 L 330 149.296875 L 324.3125 149.296875 Z M 324.3125 143 " clip-rule="nonzero"/></clipPath><clipPath id="e256824681"><path d="M 353.804688 184.578125 C 370.535156 221.917969 341.914062 264.726562 305.976562 270.550781 C 292.851562 272.675781 276.957031 273.375 257.859375 272.992188 C 149.476562 270.828125 28.171875 249.386719 28.171875 249.386719 C 28.171875 249.386719 0.0351562 205.886719 13.644531 169.753906 C 16.375 162.507812 20.785156 155.558594 27.433594 149.316406 C 31.179688 145.796875 35.640625 142.503906 40.910156 139.507812 C 41.75 139.03125 42.609375 138.5625 43.488281 138.101562 C 44.84375 137.390625 46.183594 136.703125 47.507812 136.042969 C 87.035156 116.308594 111.648438 118.605469 137.527344 113.546875 C 144.144531 112.253906 150.839844 110.480469 157.890625 107.742188 C 166.6875 104.316406 176.039062 99.375 186.460938 91.96875 C 214.765625 71.859375 257.246094 77.445312 295.082031 106.898438 C 301.273438 111.714844 307.335938 117.167969 313.191406 123.253906 C 323.792969 134.265625 333.71875 147.339844 342.480469 162.429688 C 346.441406 169.253906 350.164062 176.484375 353.601562 184.125 C 353.667969 184.277344 353.738281 184.425781 353.804688 184.578125 Z M 353.804688 184.578125 " clip-rule="nonzero"/></clipPath><clipPath id="b9546afef8"><path d="M 301.292969 109.046875 L 331.507812 109.046875 L 331.507812 138.515625 L 301.292969 138.515625 Z M 301.292969 109.046875 " clip-rule="nonzero"/></clipPath><clipPath id="cb7153625f"><path d="M 353.804688 184.578125 C 370.535156 221.917969 341.914062 264.726562 305.976562 270.550781 C 292.851562 272.675781 276.957031 273.375 257.859375 272.992188 C 149.476562 270.828125 28.171875 249.386719 28.171875 249.386719 C 28.171875 249.386719 0.0351562 205.886719 13.644531 169.753906 C 16.375 162.507812 20.785156 155.558594 27.433594 149.316406 C 31.179688 145.796875 35.640625 142.503906 40.910156 139.507812 C 41.75 139.03125 42.609375 138.5625 43.488281 138.101562 C 44.84375 137.390625 46.183594 136.703125 47.507812 136.042969 C 87.035156 116.308594 111.648438 118.605469 137.527344 113.546875 C 144.144531 112.253906 150.839844 110.480469 157.890625 107.742188 C 166.6875 104.316406 176.039062 99.375 186.460938 91.96875 C 214.765625 71.859375 257.246094 77.445312 295.082031 106.898438 C 301.273438 111.714844 307.335938 117.167969 313.191406 123.253906 C 323.792969 134.265625 333.71875 147.339844 342.480469 162.429688 C 346.441406 169.253906 350.164062 176.484375 353.601562 184.125 C 353.667969 184.277344 353.738281 184.425781 353.804688 184.578125 Z M 353.804688 184.578125 " clip-rule="nonzero"/></clipPath><clipPath id="2c118288a8"><path d="M 285.464844 80 L 290.5 80 L 290.5 242 L 285.464844 242 Z M 285.464844 80 " clip-rule="nonzero"/></clipPath><clipPath id="393638924c"><path d="M 353.804688 184.578125 C 370.535156 221.917969 341.914062 264.726562 305.976562 270.550781 C 292.851562 272.675781 276.957031 273.375 257.859375 272.992188 C 149.476562 270.828125 28.171875 249.386719 28.171875 249.386719 C 28.171875 249.386719 0.0351562 205.886719 13.644531 169.753906 C 16.375 162.507812 20.785156 155.558594 27.433594 149.316406 C 31.179688 145.796875 35.640625 142.503906 40.910156 139.507812 C 41.75 139.03125 42.609375 138.5625 43.488281 138.101562 C 44.84375 137.390625 46.183594 136.703125 47.507812 136.042969 C 87.035156 116.308594 111.648438 118.605469 137.527344 113.546875 C 144.144531 112.253906 150.839844 110.480469 157.890625 107.742188 C 166.6875 104.316406 176.039062 99.375 186.460938 91.96875 C 214.765625 71.859375 257.246094 77.445312 295.082031 106.898438 C 301.273438 111.714844 307.335938 117.167969 313.191406 123.253906 C 323.792969 134.265625 333.71875 147.339844 342.480469 162.429688 C 346.441406 169.253906 350.164062 176.484375 353.601562 184.125 C 353.667969 184.277344 353.738281 184.425781 353.804688 184.578125 Z M 353.804688 184.578125 " clip-rule="nonzero"/></clipPath><clipPath id="af388b75b8"><path d="M 261.003906 156.484375 L 278 156.484375 L 278 160.796875 L 261.003906 160.796875 Z M 261.003906 156.484375 " clip-rule="nonzero"/></clipPath><clipPath id="b2bd2f543b"><path d="M 353.804688 184.578125 C 370.535156 221.917969 341.914062 264.726562 305.976562 270.550781 C 292.851562 272.675781 276.957031 273.375 257.859375 272.992188 C 149.476562 270.828125 28.171875 249.386719 28.171875 249.386719 C 28.171875 249.386719 0.0351562 205.886719 13.644531 169.753906 C 16.375 162.507812 20.785156 155.558594 27.433594 149.316406 C 31.179688 145.796875 35.640625 142.503906 40.910156 139.507812 C 41.75 139.03125 42.609375 138.5625 43.488281 138.101562 C 44.84375 137.390625 46.183594 136.703125 47.507812 136.042969 C 87.035156 116.308594 111.648438 118.605469 137.527344 113.546875 C 144.144531 112.253906 150.839844 110.480469 157.890625 107.742188 C 166.6875 104.316406 176.039062 99.375 186.460938 91.96875 C 214.765625 71.859375 257.246094 77.445312 295.082031 106.898438 C 301.273438 111.714844 307.335938 117.167969 313.191406 123.253906 C 323.792969 134.265625 333.71875 147.339844 342.480469 162.429688 C 346.441406 169.253906 350.164062 176.484375 353.601562 184.125 C 353.667969 184.277344 353.738281 184.425781 353.804688 184.578125 Z M 353.804688 184.578125 " clip-rule="nonzero"/></clipPath><clipPath id="3d972defa6"><path d="M 343.738281 80 L 348.773438 80 L 348.773438 242 L 343.738281 242 Z M 343.738281 80 " clip-rule="nonzero"/></clipPath><clipPath id="0031a1a10d"><path d="M 353.804688 184.578125 C 370.535156 221.917969 341.914062 264.726562 305.976562 270.550781 C 292.851562 272.675781 276.957031 273.375 257.859375 272.992188 C 149.476562 270.828125 28.171875 249.386719 28.171875 249.386719 C 28.171875 249.386719 0.0351562 205.886719 13.644531 169.753906 C 16.375 162.507812 20.785156 155.558594 27.433594 149.316406 C 31.179688 145.796875 35.640625 142.503906 40.910156 139.507812 C 41.75 139.03125 42.609375 138.5625 43.488281 138.101562 C 44.84375 137.390625 46.183594 136.703125 47.507812 136.042969 C 87.035156 116.308594 111.648438 118.605469 137.527344 113.546875 C 144.144531 112.253906 150.839844 110.480469 157.890625 107.742188 C 166.6875 104.316406 176.039062 99.375 186.460938 91.96875 C 214.765625 71.859375 257.246094 77.445312 295.082031 106.898438 C 301.273438 111.714844 307.335938 117.167969 313.191406 123.253906 C 323.792969 134.265625 333.71875 147.339844 342.480469 162.429688 C 346.441406 169.253906 350.164062 176.484375 353.601562 184.125 C 353.667969 184.277344 353.738281 184.425781 353.804688 184.578125 Z M 353.804688 184.578125 " clip-rule="nonzero"/></clipPath><clipPath id="9c7272c7e8"><path d="M 15 226.203125 L 369.636719 226.203125 L 369.636719 291.09375 L 15 291.09375 Z M 15 226.203125 " clip-rule="nonzero"/></clipPath><clipPath id="d6e3c93e51"><path d="M 45.179688 226.203125 L 258.847656 226.203125 L 258.847656 277.957031 L 45.179688 277.957031 Z M 45.179688 226.203125 " clip-rule="nonzero"/></clipPath><clipPath id="36071a1477"><path d="M 53.195312 228.292969 C 53.195312 228.292969 345.90625 223.347656 364.925781 229.734375 C 383.949219 236.128906 339.398438 237.132812 336.328125 262.964844 C 331.722656 301.648438 65.871094 300.277344 24.578125 259.816406 C 8.140625 243.707031 10.117188 229.195312 53.195312 228.292969 Z M 53.195312 228.292969 " clip-rule="nonzero"/></clipPath><clipPath id="314f528e57"><path d="M 15 226.203125 L 194.816406 226.203125 L 194.816406 265 L 15 265 Z M 15 226.203125 " clip-rule="nonzero"/></clipPath><clipPath id="4d6a4e7cfc"><path d="M 53.195312 228.292969 C 53.195312 228.292969 345.90625 223.347656 364.925781 229.734375 C 383.949219 236.128906 339.398438 237.132812 336.328125 262.964844 C 331.722656 301.648438 65.871094 300.277344 24.578125 259.816406 C 8.140625 243.707031 10.117188 229.195312 53.195312 228.292969 Z M 53.195312 228.292969 " clip-rule="nonzero"/></clipPath><clipPath id="0428ed3df5"><path d="M 85.464844 231.234375 L 355 231.234375 L 355 291.09375 L 85.464844 291.09375 Z M 85.464844 231.234375 " clip-rule="nonzero"/></clipPath><clipPath id="f6ed1ec4e9"><path d="M 53.195312 228.292969 C 53.195312 228.292969 345.90625 223.347656 364.925781 229.734375 C 383.949219 236.128906 339.398438 237.132812 336.328125 262.964844 C 331.722656 301.648438 65.871094 300.277344 24.578125 259.816406 C 8.140625 243.707031 10.117188 229.195312 53.195312 228.292969 Z M 53.195312 228.292969 " clip-rule="nonzero"/></clipPath><clipPath id="e483201b8b"><path d="M 173.234375 251.359375 L 369.636719 251.359375 L 369.636719 291.09375 L 173.234375 291.09375 Z M 173.234375 251.359375 " clip-rule="nonzero"/></clipPath><clipPath id="9fbfd4bc8b"><path d="M 53.195312 228.292969 C 53.195312 228.292969 345.90625 223.347656 364.925781 229.734375 C 383.949219 236.128906 339.398438 237.132812 336.328125 262.964844 C 331.722656 301.648438 65.871094 300.277344 24.578125 259.816406 C 8.140625 243.707031 10.117188 229.195312 53.195312 228.292969 Z M 53.195312 228.292969 " clip-rule="nonzero"/></clipPath><clipPath id="31eab59e01"><path d="M 24.316406 226.203125 L 74.675781 226.203125 L 74.675781 242.734375 L 24.316406 242.734375 Z M 24.316406 226.203125 " clip-rule="nonzero"/></clipPath><clipPath id="bd4e3d03e2"><path d="M 53.195312 228.292969 C 53.195312 228.292969 345.90625 223.347656 364.925781 229.734375 C 383.949219 236.128906 339.398438 237.132812 336.328125 262.964844 C 331.722656 301.648438 65.871094 300.277344 24.578125 259.816406 C 8.140625 243.707031 10.117188 229.195312 53.195312 228.292969 Z M 53.195312 228.292969 " clip-rule="nonzero"/></clipPath><clipPath id="89758324ae"><path d="M 36.546875 250 L 83 250 L 83 269 L 36.546875 269 Z M 36.546875 250 " clip-rule="nonzero"/></clipPath><clipPath id="3d41c35855"><path d="M 53.195312 228.292969 C 53.195312 228.292969 345.90625 223.347656 364.925781 229.734375 C 383.949219 236.128906 339.398438 237.132812 336.328125 262.964844 C 331.722656 301.648438 65.871094 300.277344 24.578125 259.816406 C 8.140625 243.707031 10.117188 229.195312 53.195312 228.292969 Z M 53.195312 228.292969 " clip-rule="nonzero"/></clipPath><clipPath id="4283a5aeee"><path d="M 121.4375 230.515625 L 168.917969 230.515625 L 168.917969 249.921875 L 121.4375 249.921875 Z M 121.4375 230.515625 " clip-rule="nonzero"/></clipPath><clipPath id="f160639fdc"><path d="M 53.195312 228.292969 C 53.195312 228.292969 345.90625 223.347656 364.925781 229.734375 C 383.949219 236.128906 339.398438 237.132812 336.328125 262.964844 C 331.722656 301.648438 65.871094 300.277344 24.578125 259.816406 C 8.140625 243.707031 10.117188 229.195312 53.195312 228.292969 Z M 53.195312 228.292969 " clip-rule="nonzero"/></clipPath><clipPath id="90b85d1c41"><path d="M 220 235.546875 L 266.761719 235.546875 L 266.761719 254.953125 L 220 254.953125 Z M 220 235.546875 " clip-rule="nonzero"/></clipPath><clipPath id="25ad1a459b"><path d="M 53.195312 228.292969 C 53.195312 228.292969 345.90625 223.347656 364.925781 229.734375 C 383.949219 236.128906 339.398438 237.132812 336.328125 262.964844 C 331.722656 301.648438 65.871094 300.277344 24.578125 259.816406 C 8.140625 243.707031 10.117188 229.195312 53.195312 228.292969 Z M 53.195312 228.292969 " clip-rule="nonzero"/></clipPath><clipPath id="ad68fdb396"><path d="M 126.472656 258 L 173.234375 258 L 173.234375 277 L 126.472656 277 Z M 126.472656 258 " clip-rule="nonzero"/></clipPath><clipPath id="a1d1e22cda"><path d="M 53.195312 228.292969 C 53.195312 228.292969 345.90625 223.347656 364.925781 229.734375 C 383.949219 236.128906 339.398438 237.132812 336.328125 262.964844 C 331.722656 301.648438 65.871094 300.277344 24.578125 259.816406 C 8.140625 243.707031 10.117188 229.195312 53.195312 228.292969 Z M 53.195312 228.292969 " clip-rule="nonzero"/></clipPath><clipPath id="3ff800de60"><path d="M 200 268 L 246.617188 268 L 246.617188 287 L 200 287 Z M 200 268 " clip-rule="nonzero"/></clipPath><clipPath id="fefd94f5bb"><path d="M 53.195312 228.292969 C 53.195312 228.292969 345.90625 223.347656 364.925781 229.734375 C 383.949219 236.128906 339.398438 237.132812 336.328125 262.964844 C 331.722656 301.648438 65.871094 300.277344 24.578125 259.816406 C 8.140625 243.707031 10.117188 229.195312 53.195312 228.292969 Z M 53.195312 228.292969 " clip-rule="nonzero"/></clipPath><clipPath id="bcdaff8fdb"><path d="M 300 244.171875 L 346.617188 244.171875 L 346.617188 263 L 300 263 Z M 300 244.171875 " clip-rule="nonzero"/></clipPath><clipPath id="5f9b32e41c"><path d="M 53.195312 228.292969 C 53.195312 228.292969 345.90625 223.347656 364.925781 229.734375 C 383.949219 236.128906 339.398438 237.132812 336.328125 262.964844 C 331.722656 301.648438 65.871094 300.277344 24.578125 259.816406 C 8.140625 243.707031 10.117188 229.195312 53.195312 228.292969 Z M 53.195312 228.292969 " clip-rule="nonzero"/></clipPath><clipPath id="bb7858bcbc"><path d="M 197 110 L 202 110 L 202 133.484375 L 197 133.484375 Z M 197 110 " clip-rule="nonzero"/></clipPath><clipPath id="63f9148a5b"><path d="M 239.058594 102.5 C 236.578125 96.6875 226.335938 95.671875 226.335938 95.671875 L 222.917969 99.414062 C 218.875 103.839844 211.640625 102.230469 209.78125 96.5 C 197.441406 98.46875 194.136719 105.910156 192.90625 108.613281 C 190.933594 112.972656 185.785156 119.949219 187.949219 123.371094 C 190.121094 126.792969 198.414062 128.042969 198.414062 128.042969 L 197.332031 142.449219 C 197.199219 143.019531 197.03125 143.800781 196.859375 144.679688 C 196.804688 144.765625 196.78125 144.816406 196.828125 144.851562 C 196.210938 148.128906 195.652344 152.722656 197.117188 153.714844 C 199.445312 155.289062 213.726562 152.691406 219.597656 153.632812 C 224.886719 154.484375 235.503906 155.863281 234.589844 152.558594 C 234.21875 151.21875 233.433594 148.539062 232.632812 145.824219 L 232.585938 126.464844 C 232.585938 126.464844 234.449219 125.691406 236.964844 124.984375 C 238.4375 124.570312 245.515625 123.949219 246.160156 122.167969 C 247.164062 119.378906 240.277344 105.363281 239.058594 102.5 Z M 239.058594 102.5 " clip-rule="nonzero"/></clipPath><clipPath id="a8ecc77de8"><path d="M 229.351562 112 L 231.507812 112 L 231.507812 127 L 229.351562 127 Z M 229.351562 112 " clip-rule="nonzero"/></clipPath><clipPath id="efe017598e"><path d="M 239.058594 102.5 C 236.578125 96.6875 226.335938 95.671875 226.335938 95.671875 L 222.917969 99.414062 C 218.875 103.839844 211.640625 102.230469 209.78125 96.5 C 197.441406 98.46875 194.136719 105.910156 192.90625 108.613281 C 190.933594 112.972656 185.785156 119.949219 187.949219 123.371094 C 190.121094 126.792969 198.414062 128.042969 198.414062 128.042969 L 197.332031 142.449219 C 197.199219 143.019531 197.03125 143.800781 196.859375 144.679688 C 196.804688 144.765625 196.78125 144.816406 196.828125 144.851562 C 196.210938 148.128906 195.652344 152.722656 197.117188 153.714844 C 199.445312 155.289062 213.726562 152.691406 219.597656 153.632812 C 224.886719 154.484375 235.503906 155.863281 234.589844 152.558594 C 234.21875 151.21875 233.433594 148.539062 232.632812 145.824219 L 232.585938 126.464844 C 232.585938 126.464844 234.449219 125.691406 236.964844 124.984375 C 238.4375 124.570312 245.515625 123.949219 246.160156 122.167969 C 247.164062 119.378906 240.277344 105.363281 239.058594 102.5 Z M 239.058594 102.5 " clip-rule="nonzero"/></clipPath></defs><rect x="-37.5" width="450" fill="#ffffff" y="-37.499999" height="449.999989" fill-opacity="1"/><rect x="-37.5" width="450" fill="#ffffff" y="-37.499999" height="449.999989" fill-opacity="1"/><rect x="-37.5" width="450" fill="#f6f7fc" y="-37.499999" height="449.999989" fill-opacity="1"/><path fill="#e0edf9" d="M 353.804688 184.578125 C 370.535156 221.917969 341.914062 264.726562 305.976562 270.550781 C 292.851562 272.675781 276.957031 273.375 257.859375 272.992188 C 149.476562 270.828125 28.171875 249.386719 28.171875 249.386719 C 28.171875 249.386719 0.0351562 205.886719 13.644531 169.753906 C 16.375 162.507812 20.785156 155.558594 27.433594 149.316406 C 31.179688 145.796875 35.640625 142.503906 40.910156 139.507812 C 41.75 139.03125 42.609375 138.5625 43.488281 138.101562 C 44.84375 137.390625 46.183594 136.703125 47.507812 136.042969 C 87.035156 116.308594 111.648438 118.605469 137.527344 113.546875 C 144.144531 112.253906 150.839844 110.480469 157.890625 107.742188 C 166.6875 104.316406 176.039062 99.375 186.460938 91.96875 C 214.765625 71.859375 257.246094 77.445312 295.082031 106.898438 C 301.273438 111.714844 307.335938 117.167969 313.191406 123.253906 C 323.792969 134.265625 333.71875 147.339844 342.480469 162.429688 C 346.441406 169.253906 350.164062 176.484375 353.601562 184.125 C 353.667969 184.277344 353.738281 184.425781 353.804688 184.578125 " fill-opacity="1" fill-rule="nonzero"/><g clip-path="url(#3800591bff)"><g clip-path="url(#27f3e2b7ff)"><path fill="#f9efea" d="M 132.953125 241.820312 L 231.59375 241.820312 L 231.59375 62.21875 L 132.953125 62.21875 L 132.953125 241.820312 " fill-opacity="1" fill-rule="nonzero"/></g></g><g clip-path="url(#c6ab598faa)"><g clip-path="url(#63725ac092)"><path fill="#f9f9f9" d="M 178.296875 241.984375 L 182.847656 241.984375 L 182.847656 62.070312 L 178.296875 62.070312 L 178.296875 241.984375 " fill-opacity="1" fill-rule="nonzero"/></g></g><g clip-path="url(#1666c9e9da)"><g clip-path="url(#1879bd67d6)"><path fill="#f9f9f9" d="M 231.539062 239.144531 L 237.640625 239.144531 L 237.640625 59.230469 L 231.539062 59.230469 L 231.539062 239.144531 " fill-opacity="1" fill-rule="nonzero"/></g></g><g clip-path="url(#9c8461e879)"><g clip-path="url(#0bc27a499b)"><path fill="#f9efea" d="M 369.636719 72.789062 L 369.636719 241.925781 L 237.570312 241.925781 L 237.570312 72.789062 L 369.636719 72.789062 " fill-opacity="1" fill-rule="nonzero"/></g></g><g clip-path="url(#f41b1b85a5)"><g clip-path="url(#de98f55a7f)"><path fill="#f9f4f2" d="M 300.945312 72.789062 L 237.570312 163.835938 L 237.640625 136.886719 L 281.3125 72.785156 L 300.945312 72.789062 " fill-opacity="1" fill-rule="nonzero"/></g></g><g clip-path="url(#6a82c82969)"><g clip-path="url(#4e802110a9)"><path fill="#f9f4f2" d="M 357.59375 72.789062 L 239.863281 241.925781 L 237.570312 241.925781 L 237.570312 231.59375 L 348.105469 72.789062 L 357.59375 72.789062 " fill-opacity="1" fill-rule="nonzero"/></g></g><g clip-path="url(#497dc20d50)"><g clip-path="url(#6dbf16eeae)"><path fill="#f9f4f2" d="M 369.636719 133.515625 L 369.703125 161.390625 L 315.710938 241.933594 L 294.175781 241.925781 L 369.636719 133.515625 " fill-opacity="1" fill-rule="nonzero"/></g></g><g clip-path="url(#97f9865f76)"><g clip-path="url(#f2d29d767b)"><path fill="#f9f9f9" d="M 299.492188 156.128906 L 334.554688 156.128906 L 334.554688 135.839844 L 299.492188 135.839844 L 299.492188 156.128906 " fill-opacity="1" fill-rule="nonzero"/></g></g><g clip-path="url(#b7d5885a7e)"><g clip-path="url(#51101e5820)"><path fill="#f9efea" d="M 308.855469 146.15625 C 308.855469 144.03125 305.878906 144.03125 305.878906 146.15625 C 305.878906 148.300781 308.855469 148.300781 308.855469 146.15625 Z M 304.316406 146.15625 C 304.316406 142.074219 310.410156 142.074219 310.410156 146.15625 C 310.410156 150.253906 304.316406 150.253906 304.316406 146.15625 " fill-opacity="1" fill-rule="nonzero"/></g></g><g clip-path="url(#a2cf6daa5d)"><g clip-path="url(#e0b5ea266b)"><path fill="#f9efea" d="M 314.792969 144.546875 C 314.4375 144.539062 314.054688 144.546875 313.707031 144.546875 C 313.707031 145.027344 313.707031 145.753906 313.707031 146.234375 L 314.792969 146.234375 C 315.625 146.234375 315.675781 144.554688 314.792969 144.546875 Z M 312.191406 149.105469 C 312.191406 147.136719 312.191406 145.171875 312.191406 143.195312 C 313.046875 143.195312 313.925781 143.195312 314.800781 143.195312 C 317.644531 143.203125 317.644531 147.59375 314.800781 147.59375 L 313.707031 147.59375 L 313.707031 149.105469 C 313.199219 149.105469 312.691406 149.105469 312.191406 149.105469 " fill-opacity="1" fill-rule="nonzero"/></g></g><g clip-path="url(#022e62ece4)"><g clip-path="url(#f97dc56fdb)"><path fill="#f9efea" d="M 322.417969 144.546875 C 321.535156 144.546875 321.09375 144.546875 320.222656 144.546875 L 320.222656 145.382812 L 322.242188 145.382812 C 322.242188 145.828125 322.242188 146.277344 322.242188 146.726562 L 320.222656 146.726562 C 320.222656 147.070312 320.222656 147.40625 320.222656 147.761719 C 321.09375 147.761719 321.605469 147.761719 322.496094 147.761719 C 322.496094 148.203125 322.496094 148.660156 322.496094 149.105469 C 321.105469 149.105469 320.085938 149.105469 318.710938 149.105469 C 318.710938 147.128906 318.710938 145.152344 318.710938 143.195312 C 320.085938 143.195312 321.027344 143.195312 322.417969 143.195312 C 322.417969 143.632812 322.417969 144.089844 322.417969 144.546875 " fill-opacity="1" fill-rule="nonzero"/></g></g><g clip-path="url(#454dda6278)"><g clip-path="url(#e256824681)"><path fill="#f9efea" d="M 326.007812 146.199219 L 326.007812 149.105469 C 325.484375 149.105469 324.957031 149.105469 324.441406 149.105469 L 324.441406 143.171875 L 324.992188 143.171875 L 327.992188 146.089844 L 327.992188 143.195312 C 328.511719 143.195312 329.027344 143.195312 329.546875 143.195312 L 329.546875 149.113281 L 329.003906 149.113281 L 326.007812 146.199219 " fill-opacity="1" fill-rule="nonzero"/></g></g><g clip-path="url(#b9546afef8)"><g clip-path="url(#cb7153625f)"><path fill="#f9f9f9" d="M 330.644531 138.046875 C 330.457031 138.046875 330.277344 137.941406 330.1875 137.761719 L 317.007812 111.015625 L 302.675781 137.777344 C 302.546875 138.023438 302.234375 138.117188 301.992188 137.984375 C 301.746094 137.851562 301.648438 137.546875 301.78125 137.300781 L 316.578125 109.664062 C 316.667969 109.496094 316.84375 109.390625 317.03125 109.398438 C 317.222656 109.398438 317.398438 109.507812 317.480469 109.679688 L 331.101562 137.3125 C 331.222656 137.566406 331.121094 137.871094 330.867188 137.992188 C 330.796875 138.027344 330.71875 138.046875 330.644531 138.046875 " fill-opacity="1" fill-rule="nonzero"/></g></g><g clip-path="url(#2c118288a8)"><g clip-path="url(#393638924c)"><path fill="#f9f9f9" d="M 285.828125 241.925781 L 290.378906 241.925781 L 290.378906 70.550781 L 285.828125 70.550781 L 285.828125 241.925781 " fill-opacity="1" fill-rule="nonzero"/></g></g><g clip-path="url(#af388b75b8)"><g clip-path="url(#b2bd2f543b)"><path fill="#f9f9f9" d="M 261.242188 160.199219 L 277.964844 160.199219 L 277.964844 156.972656 L 261.242188 156.972656 L 261.242188 160.199219 " fill-opacity="1" fill-rule="nonzero"/></g></g><g clip-path="url(#3d972defa6)"><g clip-path="url(#0031a1a10d)"><path fill="#f9f9f9" d="M 348.382812 241.839844 L 343.765625 241.839844 L 343.765625 72.769531 L 348.382812 72.769531 L 348.382812 241.839844 " fill-opacity="1" fill-rule="nonzero"/></g></g><g clip-path="url(#9c7272c7e8)"><path fill="#d3cfd7" d="M 53.195312 228.292969 C 53.195312 228.292969 345.90625 223.347656 364.925781 229.734375 C 383.949219 236.128906 339.398438 237.132812 336.328125 262.964844 C 331.722656 301.648438 65.871094 300.277344 24.578125 259.816406 C 8.140625 243.707031 10.117188 229.195312 53.195312 228.292969 " fill-opacity="1" fill-rule="nonzero"/></g><g clip-path="url(#d6e3c93e51)"><g clip-path="url(#36071a1477)"><path fill="#c8c4cc" d="M 46.132812 277.78125 L 45.859375 276.632812 L 258.085938 226.484375 L 258.355469 227.628906 L 46.132812 277.78125 " fill-opacity="1" fill-rule="nonzero"/></g></g><g clip-path="url(#314f528e57)"><g clip-path="url(#4d6a4e7cfc)"><path fill="#c8c4cc" d="M -17.515625 264.742188 L -17.789062 263.59375 L 194.4375 213.445312 L 194.707031 214.589844 L -17.515625 264.742188 " fill-opacity="1" fill-rule="nonzero"/></g></g><g clip-path="url(#0428ed3df5)"><g clip-path="url(#f6ed1ec4e9)"><path fill="#c8c4cc" d="M 86.085938 296.433594 L 85.816406 295.289062 L 354.664062 231.902344 L 354.933594 233.046875 L 86.085938 296.433594 " fill-opacity="1" fill-rule="nonzero"/></g></g><g clip-path="url(#e483201b8b)"><g clip-path="url(#9fbfd4bc8b)"><path fill="#c8c4cc" d="M 173.828125 302.855469 L 173.554688 301.707031 L 385.785156 251.558594 L 386.054688 252.707031 L 173.828125 302.855469 " fill-opacity="1" fill-rule="nonzero"/></g></g><g clip-path="url(#31eab59e01)"><g clip-path="url(#bd4e3d03e2)"><path fill="#c8c4cc" d="M 73.835938 242.410156 L 24.703125 223.796875 L 25.121094 222.695312 L 74.253906 241.308594 L 73.835938 242.410156 " fill-opacity="1" fill-rule="nonzero"/></g></g><g clip-path="url(#89758324ae)"><g clip-path="url(#3d41c35855)"><path fill="#c8c4cc" d="M 82.527344 268.730469 L 36.550781 251.28125 L 36.96875 250.175781 L 82.945312 267.628906 L 82.527344 268.730469 " fill-opacity="1" fill-rule="nonzero"/></g></g><g clip-path="url(#4283a5aeee)"><g clip-path="url(#f160639fdc)"><path fill="#c8c4cc" d="M 167.859375 249.273438 L 121.882812 231.824219 L 122.300781 230.71875 L 168.28125 248.171875 L 167.859375 249.273438 " fill-opacity="1" fill-rule="nonzero"/></g></g><g clip-path="url(#90b85d1c41)"><g clip-path="url(#25ad1a459b)"><path fill="#c8c4cc" d="M 266.242188 254.289062 L 220.265625 236.835938 L 220.683594 235.734375 L 266.664062 253.1875 L 266.242188 254.289062 " fill-opacity="1" fill-rule="nonzero"/></g></g><g clip-path="url(#ad68fdb396)"><g clip-path="url(#a1d1e22cda)"><path fill="#c8c4cc" d="M 172.679688 276.757812 L 126.703125 259.304688 L 127.121094 258.199219 L 173.097656 275.652344 L 172.679688 276.757812 " fill-opacity="1" fill-rule="nonzero"/></g></g><g clip-path="url(#3ff800de60)"><g clip-path="url(#fefd94f5bb)"><path fill="#c8c4cc" d="M 246.167969 286.582031 L 200.1875 269.132812 L 200.605469 268.03125 L 246.585938 285.484375 L 246.167969 286.582031 " fill-opacity="1" fill-rule="nonzero"/></g></g><g clip-path="url(#bcdaff8fdb)"><g clip-path="url(#5f9b32e41c)"><path fill="#c8c4cc" d="M 346.15625 262.914062 L 300.175781 245.460938 L 300.59375 244.363281 L 346.574219 261.8125 L 346.15625 262.914062 " fill-opacity="1" fill-rule="nonzero"/></g></g><path fill="#f2a987" d="M 190.40625 264.894531 C 190.40625 264.894531 203.703125 263.863281 207.597656 263.972656 C 208.855469 264.007812 209.5 262.570312 209.8125 260.453125 C 210.460938 255.992188 209.601562 248.503906 209.691406 245.339844 L 203.503906 244.398438 C 203.503906 244.398438 202.453125 253.007812 201.585938 256.101562 C 201.273438 257.21875 199.058594 258.097656 197.230469 258.976562 C 194.039062 260.511719 192.769531 261.636719 191.253906 262.582031 C 188.871094 264.074219 190.40625 264.894531 190.40625 264.894531 " fill-opacity="1" fill-rule="nonzero"/><path fill="#5e3f30" d="M 190.40625 264.894531 C 190.40625 264.894531 203.703125 263.863281 207.597656 263.972656 C 208.855469 264.007812 209.5 262.570312 209.8125 260.453125 C 206.265625 260.765625 200.195312 261.191406 199.121094 260.617188 C 198.597656 260.335938 197.914062 259.703125 197.230469 258.976562 C 194.039062 260.511719 192.769531 261.636719 191.253906 262.582031 C 188.871094 264.074219 190.40625 264.894531 190.40625 264.894531 " fill-opacity="1" fill-rule="nonzero"/><path fill="#f2a987" d="M 217.160156 271.699219 C 217.160156 271.699219 232.390625 267.273438 236.082031 266.574219 C 237.273438 266.34375 237.585938 264.855469 237.4375 262.796875 C 237.125 258.460938 234.757812 251.585938 234.1875 248.582031 L 226.660156 249.25 C 226.660156 249.25 228.207031 257.367188 228.03125 260.457031 C 227.96875 261.578125 226.816406 262.808594 225.277344 264.007812 C 222.585938 266.117188 218.710938 268.140625 217.476562 269.347656 C 215.542969 271.242188 217.160156 271.699219 217.160156 271.699219 " fill-opacity="1" fill-rule="nonzero"/><path fill="#5e3f30" d="M 217.160156 271.699219 C 217.160156 271.699219 232.390625 267.273438 236.082031 266.574219 C 237.273438 266.34375 237.585938 264.855469 237.4375 262.796875 C 234.160156 263.828125 228.527344 265.484375 227.394531 265.167969 C 226.847656 265.011719 226.070312 264.554688 225.277344 264.007812 C 222.585938 266.117188 218.710938 268.140625 217.476562 269.347656 C 215.542969 271.242188 217.160156 271.699219 217.160156 271.699219 " fill-opacity="1" fill-rule="nonzero"/><path fill="#7f98c1" d="M 196.617188 251.210938 C 196.617188 251.210938 199.132812 251.804688 202.339844 252.460938 C 204.769531 252.957031 207.597656 253.492188 210.011719 253.828125 C 212.367188 254.15625 214.335938 254.300781 215.183594 254.046875 C 218.046875 253.179688 213.777344 242.496094 213.867188 239.1875 C 213.90625 237.800781 214.96875 233.570312 216.191406 229.121094 C 217.464844 233.488281 218.570312 237.097656 219.085938 238.859375 C 220.667969 244.265625 221.9375 255.179688 221.9375 255.179688 C 221.9375 255.179688 224.476562 255.449219 227.675781 255.574219 C 230.34375 255.683594 233.46875 255.691406 235.957031 255.371094 C 238.558594 255.039062 240.476562 254.34375 240.460938 253.027344 C 240.417969 248.925781 236.863281 240.785156 236.734375 234.160156 C 236.609375 227.535156 233.078125 212.929688 232.066406 209.589844 C 231.304688 207.058594 233.261719 191.570312 234.449219 179.894531 C 234.828125 176.164062 235.125 172.824219 235.230469 170.421875 C 235.3125 168.65625 235.242188 167.023438 235.070312 165.53125 C 234.519531 160.601562 232.90625 157.199219 232.027344 155.65625 C 231.671875 155.035156 231.433594 154.714844 231.433594 154.714844 C 231.433594 154.714844 226.675781 154.941406 220.851562 155.503906 C 219.886719 155.597656 218.886719 155.699219 217.878906 155.8125 C 217.867188 155.816406 217.855469 155.816406 217.847656 155.816406 C 217.253906 155.882812 216.652344 155.953125 216.050781 156.027344 C 214.703125 156.191406 213.253906 156.320312 211.777344 156.429688 C 204.578125 156.96875 196.722656 157.074219 196.53125 159.117188 C 196.527344 159.164062 196.53125 159.4375 196.539062 159.902344 C 196.550781 161.140625 196.597656 163.753906 196.65625 167.113281 C 196.851562 178.578125 195.828125 200.773438 195.34375 204.980469 C 194.296875 214.097656 196.628906 226.390625 196.210938 238.308594 C 195.992188 244.542969 196.617188 251.210938 196.617188 251.210938 " fill-opacity="1" fill-rule="nonzero"/><path fill="#748ab0" d="M 196.65625 167.113281 C 197.230469 167.050781 197.851562 166.980469 198.503906 166.902344 C 209.144531 165.632812 229.671875 162.59375 231.390625 157.867188 C 232.277344 155.429688 225.996094 155.183594 217.878906 155.8125 C 217.867188 155.816406 217.855469 155.816406 217.847656 155.816406 C 216.546875 155.917969 215.199219 156.042969 213.828125 156.183594 C 213.144531 156.261719 212.457031 156.347656 211.777344 156.429688 C 205.34375 157.246094 199.175781 158.386719 196.539062 159.902344 C 196.550781 161.140625 196.597656 163.753906 196.65625 167.113281 " fill-opacity="1" fill-rule="nonzero"/><path fill="#7f98c1" d="M 197.125 150.554688 C 197.125 150.554688 194.589844 195.960938 194.199219 209.453125 C 193.894531 219.941406 208.425781 227.160156 220.90625 225.582031 C 224.125 225.175781 237.105469 207.804688 234.308594 171.914062 L 233.710938 149.25 L 197.125 150.554688 " fill-opacity="1" fill-rule="nonzero"/><path fill="#748ab0" d="M 216.132812 229.453125 C 215.976562 229.453125 215.839844 229.347656 215.800781 229.191406 C 215.699219 228.78125 213.347656 219.105469 213.1875 215.410156 C 213.148438 214.472656 213.15625 213.285156 213.167969 212.023438 C 213.195312 208.230469 213.226562 203.515625 212.046875 200.980469 C 211.042969 198.816406 211.554688 191.363281 212.003906 184.792969 C 212.296875 180.527344 212.574219 176.496094 212.363281 174.828125 C 212.335938 174.644531 212.46875 174.472656 212.65625 174.449219 C 212.839844 174.425781 213.011719 174.558594 213.035156 174.742188 C 213.257812 176.476562 212.988281 180.347656 212.679688 184.835938 C 212.253906 191.007812 211.730469 198.6875 212.664062 200.695312 C 213.90625 203.367188 213.871094 208.171875 213.84375 212.027344 C 213.835938 213.28125 213.828125 214.460938 213.867188 215.382812 C 214.023438 219.011719 216.4375 228.933594 216.460938 229.03125 C 216.503906 229.214844 216.390625 229.394531 216.210938 229.441406 C 216.183594 229.449219 216.15625 229.453125 216.132812 229.453125 " fill-opacity="1" fill-rule="nonzero"/><path fill="#f0a68e" d="M 189.65625 124.421875 L 186.800781 141.445312 C 186.800781 141.445312 159.519531 142.171875 159.972656 143.363281 C 160.867188 145.734375 162.242188 150.296875 163.648438 152.191406 C 164.371094 153.164062 193.917969 150.335938 194.4375 149.820312 C 199.226562 145.078125 202.285156 113.042969 202.253906 108.816406 C 201.1875 109.527344 200.371094 110.566406 199.933594 111.773438 C 199.4375 113.140625 198.878906 114.648438 198.023438 115.113281 L 197.902344 115.167969 C 196.929688 115.617188 196.070312 116.277344 195.371094 117.089844 C 194.945312 117.585938 194.46875 118.058594 193.96875 118.503906 C 192.132812 120.148438 190.652344 122.160156 189.65625 124.421875 " fill-opacity="1" fill-rule="nonzero"/><path fill="#f0a68e" d="M 231.554688 122.042969 L 238.777344 142.203125 C 238.777344 142.203125 236.140625 167.460938 237.113281 168.292969 C 239.039062 169.9375 238.730469 166.332031 240.878906 167.316406 C 241.980469 167.820312 247.773438 142.707031 247.984375 142.003906 C 249.898438 135.542969 237.136719 105.996094 235.074219 102.304688 C 234.480469 103.441406 234.269531 104.746094 234.464844 106.015625 C 234.691406 107.453125 234.929688 109.042969 234.398438 109.863281 L 234.320312 109.964844 C 233.683594 110.824219 233.25 111.820312 233.027344 112.871094 C 232.894531 113.511719 232.703125 114.148438 232.480469 114.78125 C 231.664062 117.105469 231.335938 119.582031 231.554688 122.042969 " fill-opacity="1" fill-rule="nonzero"/><path fill="#e08163" d="M 239.039062 141.875 C 239.082031 141.867188 239.125 141.84375 239.148438 141.808594 C 240.148438 140.40625 242.8125 140.414062 242.835938 140.414062 C 242.921875 140.414062 242.992188 140.34375 242.992188 140.257812 C 242.992188 140.164062 242.921875 140.09375 242.835938 140.09375 C 242.808594 140.09375 242.121094 140.089844 241.292969 140.269531 C 240.164062 140.515625 239.359375 140.972656 238.898438 141.621094 C 238.847656 141.691406 238.859375 141.792969 238.929688 141.84375 C 238.964844 141.867188 239.003906 141.875 239.039062 141.875 " fill-opacity="1" fill-rule="nonzero"/><path fill="#e08163" d="M 186.960938 141.582031 C 186.984375 141.621094 187.027344 141.644531 187.070312 141.648438 C 188.78125 141.839844 190.070312 144.167969 190.082031 144.191406 C 190.121094 144.269531 190.21875 144.292969 190.296875 144.25 C 190.371094 144.210938 190.402344 144.113281 190.359375 144.039062 C 190.347656 144.011719 190.015625 143.410156 189.457031 142.773438 C 188.691406 141.90625 187.902344 141.425781 187.113281 141.335938 C 187.027344 141.324219 186.945312 141.386719 186.933594 141.472656 C 186.929688 141.515625 186.9375 141.554688 186.960938 141.582031 " fill-opacity="1" fill-rule="nonzero"/><path fill="#748ab0" d="M 212.628906 174.699219 L 213.4375 164.089844 C 213.441406 164.066406 213.660156 161.679688 213.355469 159.6875 C 213.042969 157.671875 213.578125 153.496094 214.210938 153.023438 L 214.5 153.222656 C 214.035156 153.574219 213.421875 157.507812 213.753906 159.652344 C 214.066406 161.671875 213.84375 164.078125 213.839844 164.105469 L 213.027344 174.75 L 213.019531 174.773438 C 213.007812 174.796875 212.507812 174.964844 212.628906 174.699219 " fill-opacity="1" fill-rule="nonzero"/><path fill="#748ab0" d="M 212.273438 164.382812 C 211.511719 164.398438 210.902344 164.28125 210.4375 164.03125 C 209.484375 163.515625 209.269531 162.519531 209.171875 161.519531 C 209.089844 160.652344 209.300781 160.226562 209.472656 159.882812 C 209.65625 159.507812 209.769531 159.28125 209.355469 158.613281 C 208.511719 157.242188 209.972656 153.0625 210.03125 152.882812 L 210.421875 152.953125 C 210.40625 152.996094 208.941406 157.210938 209.722656 158.488281 C 210.203125 159.265625 210.046875 159.582031 209.851562 159.980469 C 209.691406 160.296875 209.5 160.691406 209.574219 161.492188 C 209.660156 162.429688 209.855469 163.351562 210.679688 163.792969 C 211.300781 164.128906 212.253906 164.179688 213.597656 163.953125 L 213.683594 164.238281 C 213.167969 164.324219 212.695312 164.375 212.273438 164.382812 " fill-opacity="1" fill-rule="nonzero"/><path fill="#363339" d="M 216.972656 67.296875 C 216.972656 67.296875 223.472656 64.453125 226.820312 74.296875 C 229.390625 81.859375 235.765625 87.425781 238.394531 89.472656 C 238.75 89.75 238.554688 90.328125 238.105469 90.324219 L 230.324219 90.308594 L 227.09375 87.347656 L 228.730469 90.640625 L 196.8125 91.261719 C 196.8125 91.261719 196.390625 90.078125 199.621094 87.683594 C 203.238281 84.992188 202.28125 83.050781 203.886719 77 C 205.496094 70.953125 206.78125 75.019531 206.78125 75.019531 L 202.367188 75.894531 C 199.949219 76.371094 198.535156 76.359375 196.707031 74.601562 C 196.109375 74.027344 195.609375 73.375 195.257812 72.675781 C 194.976562 72.109375 194.753906 71.476562 194.628906 70.777344 C 194.628906 70.777344 197.984375 72.8125 201.019531 67.710938 C 202.417969 65.355469 204.675781 63.429688 206.796875 65.070312 C 206.832031 65.097656 206.867188 65.125 206.902344 65.152344 C 210.402344 67.925781 210.320312 63.75 212.335938 62.707031 C 214.035156 61.832031 216.710938 62.121094 216.972656 67.296875 " fill-opacity="1" fill-rule="nonzero"/><path fill="#363339" d="M 216.609375 68.804688 C 216.476562 68.804688 216.367188 68.699219 216.363281 68.566406 C 216.320312 66.421875 219.285156 64.996094 219.414062 64.9375 C 219.535156 64.882812 219.675781 64.933594 219.734375 65.054688 C 219.789062 65.179688 219.738281 65.324219 219.617188 65.382812 C 219.585938 65.394531 216.808594 66.730469 216.84375 68.554688 C 216.847656 68.6875 216.742188 68.800781 216.609375 68.804688 " fill-opacity="1" fill-rule="nonzero"/><path fill="#363339" d="M 216.621094 69.472656 C 216.601562 69.472656 216.585938 69.472656 216.566406 69.464844 C 216.4375 69.4375 216.351562 69.308594 216.382812 69.175781 C 216.523438 68.519531 217.0625 64.375 217.066406 64.332031 C 217.082031 64.199219 217.203125 64.105469 217.335938 64.125 C 217.46875 64.140625 217.5625 64.261719 217.542969 64.398438 C 217.523438 64.570312 216.996094 68.605469 216.851562 69.28125 C 216.828125 69.394531 216.730469 69.46875 216.621094 69.472656 " fill-opacity="1" fill-rule="nonzero"/><path fill="#f0a68e" d="M 228.277344 101.09375 C 228.277344 101.09375 215.371094 113.589844 212.90625 113.339844 C 208.832031 112.921875 210.570312 105.832031 206.988281 105.121094 C 204.480469 104.625 206.554688 97.875 208.046875 97.4375 C 209.359375 97.050781 210.199219 96.070312 210.722656 94.84375 C 211.050781 94.082031 211.257812 93.230469 211.382812 92.359375 C 211.445312 91.921875 211.484375 91.484375 211.507812 91.050781 C 211.519531 90.863281 211.527344 90.679688 211.535156 90.492188 C 211.535156 90.46875 211.535156 90.441406 211.535156 90.417969 C 211.59375 88.128906 211.253906 86.179688 211.253906 86.179688 C 211.253906 86.179688 216.515625 70.15625 218.953125 73.472656 C 219.242188 73.867188 219.492188 74.535156 219.6875 75.539062 C 219.839844 76.3125 219.957031 77.285156 220.039062 78.484375 C 220.121094 79.664062 220.234375 80.769531 220.375 81.808594 C 220.433594 82.226562 220.492188 82.632812 220.558594 83.03125 C 220.957031 85.429688 221.503906 87.414062 222.128906 89.070312 C 224.566406 95.53125 228.136719 96.816406 228.136719 96.816406 L 228.277344 101.09375 " fill-opacity="1" fill-rule="nonzero"/><path fill="#f0a68e" d="M 220.660156 81.105469 C 220.667969 81.359375 220.664062 81.613281 220.65625 81.863281 C 220.640625 82.257812 220.609375 82.648438 220.558594 83.03125 C 220.410156 84.191406 220.109375 85.28125 219.6875 86.265625 C 218.417969 89.222656 216.03125 91.226562 213.253906 91.28125 C 212.65625 91.292969 212.070312 91.214844 211.507812 91.050781 C 211.417969 91.027344 211.328125 91 211.238281 90.964844 C 211.164062 90.9375 211.085938 90.910156 211.011719 90.882812 C 207.878906 89.683594 205.542969 85.914062 205.453125 81.398438 C 205.347656 75.859375 208.582031 67.058594 212.78125 66.980469 C 215.246094 66.929688 217.492188 69.894531 218.953125 73.472656 C 219.226562 74.144531 219.476562 74.839844 219.6875 75.539062 C 220.277344 77.460938 220.628906 79.429688 220.660156 81.105469 " fill-opacity="1" fill-rule="nonzero"/><path fill="#f0a68e" d="M 220.246094 79.375 C 220.246094 79.375 221.152344 77.042969 223.253906 77.386719 C 225.351562 77.730469 223.789062 84.480469 219.808594 85.171875 L 220.246094 79.375 " fill-opacity="1" fill-rule="nonzero"/><path fill="#363339" d="M 221.007812 76.859375 L 220.480469 78.917969 C 220.480469 78.917969 213.835938 72.203125 215.300781 69.28125 C 215.300781 69.28125 207.632812 75.988281 203.800781 74.519531 C 199.96875 73.050781 212.726562 64.121094 212.726562 64.121094 L 223.53125 72.207031 L 221.007812 76.859375 " fill-opacity="1" fill-rule="nonzero"/><path fill="#363339" d="M 213.640625 78.738281 C 213.652344 79.320312 213.875 79.792969 214.136719 79.789062 C 214.398438 79.78125 214.601562 79.304688 214.589844 78.71875 C 214.578125 78.132812 214.359375 77.660156 214.097656 77.667969 C 213.835938 77.671875 213.628906 78.148438 213.640625 78.738281 " fill-opacity="1" fill-rule="nonzero"/><path fill="#363339" d="M 207.902344 79.253906 C 207.914062 79.839844 208.140625 80.308594 208.398438 80.304688 C 208.660156 80.300781 208.867188 79.820312 208.855469 79.234375 C 208.839844 78.648438 208.621094 78.179688 208.359375 78.183594 C 208.097656 78.191406 207.890625 78.667969 207.902344 79.253906 " fill-opacity="1" fill-rule="nonzero"/><path fill="#e07a5a" d="M 211.652344 83.5 C 211.542969 83.503906 210.613281 83.5 210.355469 83.054688 C 209.839844 82.148438 210.914062 79.523438 211.035156 79.226562 L 211.34375 79.359375 C 211.023438 80.121094 210.273438 82.242188 210.644531 82.886719 C 210.769531 83.101562 211.375 83.167969 211.644531 83.164062 L 211.652344 83.5 " fill-opacity="1" fill-rule="nonzero"/><path fill="#e07a5a" d="M 210.292969 87.253906 C 210.132812 87.195312 209.984375 87.121094 209.839844 87.035156 L 210.007812 86.746094 C 211.734375 87.773438 214.035156 86.285156 214.058594 86.265625 L 214.238281 86.550781 C 214.214844 86.566406 213.609375 86.960938 212.773438 87.222656 C 211.851562 87.507812 211.003906 87.515625 210.292969 87.253906 " fill-opacity="1" fill-rule="nonzero"/><path fill="#363339" d="M 216.179688 76.804688 C 216.15625 76.792969 213.964844 75.519531 212.824219 76.839844 L 212.574219 76.621094 C 213.125 75.980469 213.957031 75.761719 214.984375 75.988281 C 215.734375 76.15625 216.320312 76.5 216.347656 76.515625 L 216.179688 76.804688 " fill-opacity="1" fill-rule="nonzero"/><path fill="#363339" d="M 210.03125 77.039062 C 208.523438 75.199219 206.667969 76.605469 206.589844 76.667969 L 206.371094 76.378906 C 206.394531 76.363281 208.578125 74.699219 210.308594 76.804688 L 210.03125 77.039062 " fill-opacity="1" fill-rule="nonzero"/><path fill="#e07a5a" d="M 212.914062 91.398438 C 212.449219 91.398438 211.964844 91.34375 211.46875 91.226562 C 211.371094 91.207031 211.308594 91.109375 211.332031 91.007812 C 211.355469 90.910156 211.453125 90.847656 211.550781 90.871094 C 216.382812 91.988281 219.566406 86.816406 219.597656 86.761719 C 219.652344 86.675781 219.765625 86.648438 219.847656 86.699219 C 219.9375 86.75 219.964844 86.863281 219.910156 86.949219 C 219.882812 87 217.179688 91.398438 212.914062 91.398438 " fill-opacity="1" fill-rule="nonzero"/><path fill="#de684e" d="M 239.058594 102.5 C 236.578125 96.6875 226.335938 95.671875 226.335938 95.671875 L 222.917969 99.414062 C 218.875 103.839844 211.640625 102.230469 209.78125 96.5 C 197.441406 98.46875 194.136719 105.910156 192.90625 108.613281 C 190.933594 112.972656 185.785156 119.949219 187.949219 123.371094 C 190.121094 126.792969 198.414062 128.042969 198.414062 128.042969 L 197.332031 142.449219 C 197.199219 143.019531 197.03125 143.800781 196.859375 144.679688 C 196.804688 144.765625 196.78125 144.816406 196.828125 144.851562 C 196.210938 148.128906 195.652344 152.722656 197.117188 153.714844 C 199.445312 155.289062 213.726562 152.691406 219.597656 153.632812 C 224.886719 154.484375 235.503906 155.863281 234.589844 152.558594 C 234.21875 151.21875 233.433594 148.539062 232.632812 145.824219 L 232.585938 126.464844 C 232.585938 126.464844 234.449219 125.691406 236.964844 124.984375 C 238.4375 124.570312 245.515625 123.949219 246.160156 122.167969 C 247.164062 119.378906 240.277344 105.363281 239.058594 102.5 " fill-opacity="1" fill-rule="nonzero"/><g clip-path="url(#bb7858bcbc)"><g clip-path="url(#63f9148a5b)"><path fill="#c2533a" d="M 200.746094 133.175781 L 200.316406 133.117188 C 200.472656 131.929688 199.664062 130.210938 198.878906 128.550781 C 197.882812 126.429688 196.9375 124.421875 197.675781 123.140625 C 198.980469 120.878906 201.289062 110.339844 201.308594 110.234375 L 201.734375 110.332031 C 201.636719 110.765625 199.386719 121.039062 198.054688 123.363281 C 197.429688 124.445312 198.363281 126.433594 199.273438 128.359375 C 200.082031 130.078125 200.917969 131.859375 200.746094 133.175781 " fill-opacity="1" fill-rule="nonzero"/></g></g><g clip-path="url(#a8ecc77de8)"><g clip-path="url(#efe017598e)"><path fill="#c2533a" d="M 230.976562 126.484375 C 229.363281 121.257812 230.164062 112.324219 230.171875 112.234375 L 230.605469 112.273438 C 230.59375 112.363281 229.804688 121.210938 231.394531 126.347656 L 230.976562 126.484375 " fill-opacity="1" fill-rule="nonzero"/></g></g><path fill="#2d2525" d="M 124.789062 168.929688 C 124.789062 170.484375 123.527344 171.75 121.964844 171.75 C 120.40625 171.75 119.140625 170.484375 119.140625 168.929688 C 119.140625 167.371094 120.40625 166.105469 121.964844 166.105469 C 123.527344 166.105469 124.789062 167.371094 124.789062 168.929688 " fill-opacity="1" fill-rule="nonzero"/><path fill="#e4a07f" d="M 180.566406 155.003906 C 181.667969 159.941406 183.003906 169.070312 183.210938 172.089844 C 183.410156 175.109375 177.320312 177.410156 176.199219 177.660156 C 175.078125 177.914062 176.121094 176.265625 176.320312 172.921875 C 176.515625 169.578125 175.367188 168.65625 175.066406 169.429688 C 174.765625 170.203125 176.195312 173.421875 175.046875 174.617188 C 173.902344 175.816406 173.402344 175.695312 173.574219 173.300781 C 173.746094 170.90625 172.566406 168.808594 174.3125 166.0625 C 176.058594 163.316406 176.257812 160.070312 175.328125 156.976562 C 174.398438 153.886719 180.566406 155.003906 180.566406 155.003906 " fill-opacity="1" fill-rule="nonzero"/><path fill="#e4a07f" d="M 115.300781 167.949219 C 116.003906 171.019531 121.191406 171.925781 121.191406 171.925781 C 121.191406 171.925781 124.917969 169.644531 124.316406 167.28125 C 123.714844 164.914062 122.535156 163.117188 123.144531 160.070312 C 123.753906 157.019531 127.664062 144.765625 127.949219 138.671875 C 128.238281 132.578125 132.355469 121.734375 133.988281 118.449219 C 134.121094 118.171875 134.265625 117.875 134.414062 117.558594 C 134.453125 117.480469 134.492188 117.398438 134.527344 117.316406 C 134.957031 116.386719 135.429688 115.300781 135.898438 114.160156 C 136.089844 113.691406 136.285156 113.21875 136.46875 112.738281 C 136.628906 112.335938 136.785156 111.933594 136.9375 111.535156 C 137.21875 110.796875 137.488281 110.054688 137.738281 109.34375 C 138.292969 107.75 138.742188 106.28125 138.976562 105.191406 C 139.277344 103.796875 137.15625 103.167969 134.632812 102.910156 C 134.289062 102.875 133.941406 102.847656 133.589844 102.828125 C 130.4375 102.625 127.082031 102.882812 127.082031 102.882812 C 127.082031 102.882812 127.132812 104.839844 126.773438 107.667969 C 126.71875 108.109375 126.652344 108.578125 126.570312 109.0625 C 126.390625 110.191406 126.140625 111.410156 125.808594 112.671875 C 124.421875 117.914062 124.097656 123.457031 121.648438 128.386719 C 119.199219 133.316406 118.894531 140.726562 119.03125 147.390625 C 119.167969 154.054688 118.800781 159.058594 116.558594 162.222656 C 114.316406 165.386719 114.59375 164.882812 115.300781 167.949219 " fill-opacity="1" fill-rule="nonzero"/><path fill="#e4a07f" d="M 135.90625 98.125 C 135.90625 98.125 139.753906 97.527344 141.917969 96.566406 C 144.082031 95.605469 151.292969 96.449219 155.621094 97.40625 C 159.949219 98.367188 153.941406 112.0625 153.941406 112.0625 L 131.820312 112.902344 L 135.90625 98.125 " fill-opacity="1" fill-rule="nonzero"/><path fill="#e4a07f" d="M 165.785156 261.046875 L 159.304688 261.046875 L 158.054688 254.035156 L 157.171875 249.082031 L 162.890625 248.472656 L 165.273438 248.222656 L 165.328125 249.558594 L 165.441406 252.441406 L 165.785156 261.046875 " fill-opacity="1" fill-rule="nonzero"/><path fill="#ce7158" d="M 167.023438 269.917969 C 166.972656 270.539062 166.914062 271.09375 166.867188 271.535156 C 166.785156 272.273438 166.363281 272.933594 165.714844 273.300781 C 162.714844 275.003906 160.625 273.722656 159.441406 272.683594 C 159.042969 272.335938 158.792969 271.851562 158.734375 271.324219 C 158.710938 271.082031 158.679688 270.789062 158.644531 270.457031 C 158.398438 267.894531 158.058594 263.070312 158.820312 261.550781 C 160.199219 258.796875 165.683594 259.4375 166.738281 262.074219 C 167.394531 263.707031 167.238281 267.367188 167.023438 269.917969 " fill-opacity="1" fill-rule="nonzero"/><path fill="#5b4e4e" d="M 167.023438 269.917969 C 166.972656 270.539062 166.914062 271.09375 166.867188 271.535156 C 166.785156 272.273438 166.363281 272.933594 165.714844 273.300781 C 162.714844 275.003906 160.625 273.722656 159.441406 272.683594 C 159.042969 272.335938 158.792969 271.851562 158.734375 271.324219 C 158.710938 271.082031 158.679688 270.789062 158.644531 270.457031 C 159.046875 270.746094 159.429688 271.035156 159.5625 271.175781 C 160.628906 272.316406 163.257812 274.441406 165.902344 271.367188 C 166.011719 271.234375 166.550781 270.539062 167.023438 269.917969 " fill-opacity="1" fill-rule="nonzero"/><path fill="#e4a07f" d="M 141.605469 266.871094 C 139.921875 267.59375 122.851562 269.753906 122.128906 268.792969 C 121.410156 267.832031 122.371094 265.070312 128.261719 261.707031 C 129.90625 260.765625 131.207031 260.003906 132.238281 259.1875 C 134.882812 257.078125 134.707031 254.546875 135.054688 247.714844 C 135.535156 238.226562 141.605469 250.296875 141.605469 250.296875 C 141.605469 252.488281 141.992188 256.230469 142.207031 259.605469 C 142.445312 263.265625 142.476562 266.496094 141.605469 266.871094 " fill-opacity="1" fill-rule="nonzero"/><path fill="#ce7158" d="M 142.242188 265.386719 C 142.132812 266.195312 141.929688 266.734375 141.605469 266.871094 C 139.921875 267.59375 122.851562 269.753906 122.128906 268.792969 C 121.882812 268.46875 121.832031 267.9375 122.101562 267.242188 C 122.625 265.894531 124.363281 263.929688 128.261719 261.707031 C 129.90625 260.765625 131.207031 260.003906 132.238281 259.1875 C 133.933594 259.933594 137.140625 260.714844 142.207031 259.605469 C 142.355469 261.898438 142.425781 264.023438 142.242188 265.386719 " fill-opacity="1" fill-rule="nonzero"/><path fill="#5b4e4e" d="M 142.242188 265.386719 C 142.132812 266.195312 141.929688 266.734375 141.605469 266.871094 C 139.921875 267.59375 122.851562 269.753906 122.128906 268.792969 C 121.882812 268.46875 121.832031 267.9375 122.101562 267.242188 C 126.421875 267.121094 136.453125 266.695312 142.242188 265.386719 " fill-opacity="1" fill-rule="nonzero"/><path fill="#63493f" d="M 170.757812 164.964844 C 170.757812 164.964844 170.75 165.277344 170.742188 165.871094 C 170.738281 166.125 170.730469 166.429688 170.726562 166.78125 C 170.519531 179.261719 169.21875 251.855469 166.910156 253.71875 C 164.382812 255.761719 153.925781 255.164062 153.925781 255.164062 L 147.792969 205.558594 L 144.429688 255.164062 C 144.429688 255.164062 133.613281 255.164062 130.605469 252.636719 C 128.046875 250.492188 127.140625 188.484375 126.933594 170.070312 C 126.894531 166.851562 126.878906 164.964844 126.878906 164.964844 L 170.757812 164.964844 " fill-opacity="1" fill-rule="nonzero"/><path fill="#2d2525" d="M 170.726562 166.78125 C 164.128906 168.304688 133.527344 169.769531 126.933594 170.070312 C 126.894531 166.851562 126.878906 164.964844 126.878906 164.964844 L 159.953125 164.964844 C 164.871094 165.21875 168.878906 165.523438 170.742188 165.871094 C 171.8125 166.074219 171.09375 166.695312 170.726562 166.78125 " fill-opacity="1" fill-rule="nonzero"/><path fill="#2d2525" d="M 147.554688 203.035156 L 147.074219 203.035156 L 147.074219 184.148438 L 141.484375 177.734375 L 141.84375 177.414062 L 147.554688 183.96875 L 147.554688 203.035156 " fill-opacity="1" fill-rule="nonzero"/><path fill="#2d2525" d="M 160.265625 248.25 L 158.375 187.1875 L 158.855469 187.175781 L 160.746094 248.234375 L 160.265625 248.25 " fill-opacity="1" fill-rule="nonzero"/><path fill="#2d2525" d="M 136.496094 249.675781 L 136.015625 249.675781 L 136.015625 192.589844 L 136.496094 192.589844 L 136.496094 249.675781 " fill-opacity="1" fill-rule="nonzero"/><path fill="#e39f7f" d="M 155.3125 98.457031 C 152.191406 106.585938 138.929688 105.425781 137.460938 98.601562 L 137.355469 98.335938 C 137.355469 98.335938 138.488281 97.242188 139.707031 95.03125 C 139.917969 94.648438 140.132812 94.191406 140.273438 93.609375 C 140.359375 93.234375 140.414062 92.808594 140.417969 92.308594 C 140.417969 92.046875 140.402344 91.769531 140.371094 91.46875 C 140.277344 90.542969 140.183594 89.75 140.132812 89.359375 C 140.113281 89.199219 140.101562 89.109375 140.101562 89.109375 L 141.035156 89.246094 L 151.835938 90.855469 L 152.160156 92.386719 L 152.324219 93.152344 C 152.359375 93.273438 152.390625 93.40625 152.429688 93.535156 C 152.964844 95.421875 153.824219 98.105469 155.3125 98.457031 " fill-opacity="1" fill-rule="nonzero"/><path fill="#e39f7f" d="M 154.09375 91.050781 C 154.082031 91.0625 154.066406 91.074219 154.054688 91.082031 C 153.421875 91.570312 152.792969 92.007812 152.160156 92.386719 C 148.09375 94.832031 144.101562 94.957031 140.417969 92.308594 C 140.03125 92.03125 139.644531 91.722656 139.261719 91.382812 C 138.996094 91.144531 138.75 90.855469 138.523438 90.519531 C 135.164062 85.558594 135.945312 70.820312 135.945312 70.820312 L 154.582031 68.65625 C 154.582031 68.65625 158.082031 87.953125 154.09375 91.050781 " fill-opacity="1" fill-rule="nonzero"/><path fill="#ce7a5b" d="M 146.296875 86.519531 C 146.140625 86.519531 145.960938 86.488281 145.71875 86.40625 C 144.890625 86.132812 145.589844 83.171875 146.082031 81.425781 C 146.113281 81.308594 146.230469 81.242188 146.351562 81.273438 C 146.46875 81.308594 146.539062 81.429688 146.503906 81.546875 C 145.894531 83.714844 145.597656 85.789062 145.859375 85.988281 C 146.292969 86.132812 146.398438 86.09375 146.746094 85.964844 C 146.925781 85.898438 147.148438 85.816406 147.484375 85.734375 C 147.601562 85.703125 147.722656 85.777344 147.75 85.894531 C 147.78125 86.011719 147.707031 86.132812 147.589844 86.164062 C 147.28125 86.238281 147.070312 86.316406 146.902344 86.378906 C 146.671875 86.464844 146.503906 86.519531 146.296875 86.519531 " fill-opacity="1" fill-rule="nonzero"/><path fill="#ce7a5b" d="M 146.265625 90.113281 C 144.746094 90.113281 143.671875 89.292969 143.65625 89.28125 C 143.558594 89.207031 143.542969 89.070312 143.617188 88.972656 C 143.691406 88.875 143.832031 88.859375 143.929688 88.933594 C 144.019531 89.003906 146.117188 90.585938 148.554688 88.925781 C 148.65625 88.855469 148.792969 88.882812 148.863281 88.984375 C 148.933594 89.082031 148.90625 89.222656 148.804688 89.292969 C 147.898438 89.910156 147.027344 90.113281 146.265625 90.113281 " fill-opacity="1" fill-rule="nonzero"/><path fill="#ce7a5b" d="M 150.578125 90.4375 C 150.527344 90.4375 150.484375 90.421875 150.441406 90.390625 C 149.515625 89.691406 149.726562 88.539062 149.964844 88.027344 C 150.019531 87.917969 150.148438 87.871094 150.257812 87.921875 C 150.371094 87.972656 150.417969 88.101562 150.367188 88.214844 C 150.34375 88.261719 149.839844 89.378906 150.710938 90.039062 C 150.808594 90.113281 150.828125 90.25 150.753906 90.347656 C 150.707031 90.40625 150.644531 90.4375 150.578125 90.4375 " fill-opacity="1" fill-rule="nonzero"/><path fill="#ce7a5b" d="M 141.355469 90.074219 C 141.261719 90.074219 141.175781 90.015625 141.144531 89.925781 C 141.105469 89.808594 141.164062 89.683594 141.28125 89.644531 C 142.460938 89.230469 142.277344 88.09375 142.269531 88.046875 C 142.25 87.925781 142.332031 87.8125 142.453125 87.792969 C 142.570312 87.773438 142.6875 87.855469 142.707031 87.972656 C 142.796875 88.507812 142.652344 89.632812 141.425781 90.058594 C 141.40625 90.070312 141.378906 90.074219 141.355469 90.074219 " fill-opacity="1" fill-rule="nonzero"/><path fill="#efe5de" d="M 152.371094 78.019531 C 151.210938 77.832031 149.964844 77.851562 148.824219 78.144531 C 147.96875 78.351562 147.644531 77.113281 148.496094 76.878906 C 149.515625 76.671875 150.566406 76.664062 151.597656 76.792969 C 151.933594 76.839844 152.25 76.890625 152.609375 76.976562 C 152.898438 77.046875 153.074219 77.332031 153.003906 77.621094 C 152.9375 77.90625 152.652344 78.078125 152.371094 78.019531 " fill-opacity="1" fill-rule="nonzero"/><path fill="#efe5de" d="M 140.144531 77.085938 C 141.164062 76.851562 142.160156 76.773438 143.195312 76.84375 C 143.539062 76.863281 143.878906 76.917969 144.226562 76.980469 C 144.582031 77.042969 144.820312 77.382812 144.753906 77.742188 C 144.691406 78.097656 144.347656 78.332031 143.992188 78.269531 C 143.6875 78.199219 143.386719 78.125 143.066406 78.089844 C 142.183594 77.96875 141.234375 77.984375 140.363281 78.132812 C 139.683594 78.234375 139.488281 77.261719 140.144531 77.085938 " fill-opacity="1" fill-rule="nonzero"/><path fill="#ce7a5b" d="M 142.472656 82.84375 C 142.378906 82.84375 142.296875 82.777344 142.28125 82.683594 C 142.261719 82.578125 142.335938 82.476562 142.4375 82.457031 C 142.453125 82.453125 143.621094 82.238281 144.222656 81.578125 C 144.292969 81.5 144.417969 81.492188 144.5 81.5625 C 144.578125 81.636719 144.582031 81.757812 144.507812 81.839844 C 143.820312 82.597656 142.5625 82.832031 142.507812 82.839844 C 142.496094 82.84375 142.484375 82.84375 142.472656 82.84375 " fill-opacity="1" fill-rule="nonzero"/><path fill="#ce7a5b" d="M 150.664062 82.84375 C 149.007812 82.84375 148.523438 81.832031 148.5 81.789062 C 148.457031 81.695312 148.496094 81.578125 148.59375 81.535156 C 148.695312 81.488281 148.808594 81.53125 148.855469 81.625 C 148.871094 81.664062 149.273438 82.453125 150.664062 82.453125 C 150.769531 82.453125 150.859375 82.542969 150.859375 82.648438 C 150.859375 82.753906 150.769531 82.84375 150.664062 82.84375 " fill-opacity="1" fill-rule="nonzero"/><path fill="#363339" d="M 150.929688 79.949219 C 150.929688 80.375 150.714844 80.726562 150.445312 80.726562 C 150.179688 80.726562 149.960938 80.375 149.960938 79.949219 C 149.960938 79.519531 150.179688 79.175781 150.445312 79.175781 C 150.714844 79.175781 150.929688 79.519531 150.929688 79.949219 " fill-opacity="1" fill-rule="nonzero"/><path fill="#363339" d="M 142.976562 79.949219 C 142.976562 80.375 142.761719 80.726562 142.492188 80.726562 C 142.226562 80.726562 142.007812 80.375 142.007812 79.949219 C 142.007812 79.519531 142.226562 79.175781 142.492188 79.175781 C 142.761719 79.175781 142.976562 79.519531 142.976562 79.949219 " fill-opacity="1" fill-rule="nonzero"/><path fill="#faf4f0" d="M 157.898438 71.890625 C 157.320312 69.460938 155.578125 67.953125 153.683594 66.839844 C 151.742188 65.695312 150.03125 64.9375 147.914062 64.691406 C 147.367188 64.492188 146.730469 64.496094 146.121094 64.542969 C 145.511719 64.496094 144.875 64.492188 144.332031 64.691406 C 142.214844 64.9375 140.503906 65.695312 138.558594 66.839844 C 136.664062 67.953125 134.925781 69.460938 134.34375 71.890625 C 133.796875 74.183594 133.808594 76.601562 134.375 78.890625 L 135.832031 84.75 C 135.832031 84.75 136.527344 83.703125 137.648438 81.367188 C 138.769531 79.027344 135.523438 70.84375 140.484375 71.652344 C 142.492188 71.984375 144.460938 72.121094 146.121094 71.910156 C 147.785156 72.121094 149.75 71.984375 151.761719 71.652344 C 156.722656 70.84375 153.472656 79.027344 154.59375 81.367188 C 155.714844 83.703125 156.410156 84.75 156.410156 84.75 L 157.867188 78.890625 C 158.4375 76.601562 158.445312 74.183594 157.898438 71.890625 " fill-opacity="1" fill-rule="nonzero"/><path fill="#e39f7f" d="M 138.066406 81.847656 C 138.066406 81.847656 136.390625 78.441406 135.335938 80.546875 C 134.28125 82.648438 136.207031 86.917969 138.066406 84.449219 C 139.925781 81.984375 138.066406 81.847656 138.066406 81.847656 " fill-opacity="1" fill-rule="nonzero"/><path fill="#e39f7f" d="M 154.902344 81.847656 C 154.902344 81.847656 156.578125 78.441406 157.628906 80.546875 C 158.683594 82.648438 156.761719 86.917969 154.902344 84.449219 C 153.042969 81.984375 154.902344 81.847656 154.902344 81.847656 " fill-opacity="1" fill-rule="nonzero"/><path fill="#d5cbc5" d="M 143.679688 71.253906 C 143.652344 71.253906 143.625 71.25 143.597656 71.238281 C 143.566406 71.226562 140.441406 69.90625 141.148438 66.789062 C 141.175781 66.675781 141.285156 66.605469 141.398438 66.628906 C 141.515625 66.65625 141.585938 66.769531 141.558594 66.878906 C 141.292969 68.042969 141.582031 69.0625 142.414062 69.910156 C 143.039062 70.550781 143.75 70.847656 143.757812 70.851562 C 143.867188 70.894531 143.917969 71.015625 143.871094 71.125 C 143.839844 71.203125 143.761719 71.253906 143.679688 71.253906 " fill-opacity="1" fill-rule="nonzero"/><path fill="#d5cbc5" d="M 145.933594 70.84375 C 145.832031 70.84375 145.746094 70.773438 145.726562 70.671875 C 145.703125 70.546875 145.144531 67.550781 146.359375 65.363281 C 146.414062 65.261719 146.542969 65.226562 146.644531 65.28125 C 146.746094 65.339844 146.78125 65.46875 146.726562 65.570312 C 145.585938 67.625 146.132812 70.5625 146.140625 70.59375 C 146.160156 70.707031 146.085938 70.816406 145.972656 70.839844 C 145.960938 70.84375 145.945312 70.84375 145.933594 70.84375 " fill-opacity="1" fill-rule="nonzero"/><path fill="#d5cbc5" d="M 149.066406 70.910156 C 149.058594 70.910156 149.054688 70.910156 149.046875 70.910156 C 148.929688 70.898438 148.847656 70.792969 148.855469 70.679688 C 148.871094 70.566406 149.167969 67.898438 151.015625 66.980469 C 151.121094 66.925781 151.246094 66.96875 151.300781 67.070312 C 151.351562 67.175781 151.308594 67.300781 151.203125 67.351562 C 149.5625 68.171875 149.277344 70.695312 149.277344 70.722656 C 149.265625 70.832031 149.175781 70.910156 149.066406 70.910156 " fill-opacity="1" fill-rule="nonzero"/><path fill="#d5cbc5" d="M 156 79.046875 C 155.980469 79.046875 155.960938 79.046875 155.9375 79.039062 C 155.828125 79.003906 155.765625 78.886719 155.800781 78.777344 C 156.574219 76.261719 155.804688 72.398438 155.796875 72.359375 C 155.773438 72.246094 155.847656 72.132812 155.957031 72.109375 C 156.074219 72.085938 156.183594 72.160156 156.207031 72.273438 C 156.238281 72.4375 157.007812 76.285156 156.203125 78.898438 C 156.175781 78.988281 156.089844 79.046875 156 79.046875 " fill-opacity="1" fill-rule="nonzero"/><path fill="#d5cbc5" d="M 136.195312 79.160156 C 136.125 79.160156 136.058594 79.125 136.019531 79.058594 C 135.324219 77.953125 135.125 76.402344 135.429688 74.574219 C 135.660156 73.207031 136.085938 72.171875 136.105469 72.128906 C 136.148438 72.023438 136.269531 71.972656 136.375 72.019531 C 136.484375 72.0625 136.535156 72.1875 136.492188 72.292969 C 136.476562 72.332031 134.824219 76.367188 136.375 78.839844 C 136.4375 78.9375 136.40625 79.066406 136.308594 79.128906 C 136.273438 79.148438 136.234375 79.160156 136.195312 79.160156 " fill-opacity="1" fill-rule="nonzero"/><path fill="#ce7a5b" d="M 146.292969 94.484375 C 146.25 94.484375 146.210938 94.484375 146.171875 94.484375 C 142.753906 94.4375 140.375 92.566406 140.277344 92.484375 C 140.183594 92.40625 140.164062 92.265625 140.242188 92.167969 C 140.320312 92.074219 140.460938 92.058594 140.558594 92.136719 C 140.582031 92.15625 142.917969 93.992188 146.175781 94.035156 C 149.4375 94.078125 152 92.226562 152.03125 92.207031 C 152.128906 92.132812 152.269531 92.152344 152.339844 92.253906 C 152.414062 92.351562 152.394531 92.492188 152.292969 92.566406 C 152.1875 92.644531 149.644531 94.484375 146.292969 94.484375 " fill-opacity="1" fill-rule="nonzero"/><path fill="#f7ddcd" d="M 137.339844 98.664062 C 137.339844 95.132812 124.234375 102.988281 121.710938 107.914062 C 119.183594 112.835938 115.699219 149.46875 115.699219 152.832031 C 115.699219 156.195312 113.683594 159.757812 121.828125 159.757812 C 124.976562 159.757812 125.898438 158.34375 126.785156 167.011719 C 127.113281 170.234375 171.359375 167.246094 171.359375 167.246094 C 171.359375 167.246094 171.359375 164.964844 171.359375 162.199219 C 171.359375 158.476562 171.71875 166.644531 182.777344 163.039062 C 185.578125 162.128906 180.734375 140.824219 178.691406 127.367188 C 176.648438 113.917969 174.84375 106.710938 169.675781 103.828125 C 164.503906 100.945312 158.132812 97.585938 155.96875 97.105469 C 153.804688 96.625 153.5625 105.75 146.953125 105.992188 C 140.34375 106.234375 137.339844 102.269531 137.339844 98.664062 " fill-opacity="1" fill-rule="nonzero"/><path fill="#debeab" d="M 125.28125 160.441406 C 125.277344 160.441406 125.269531 160.441406 125.261719 160.441406 C 125.128906 160.429688 125.03125 160.3125 125.039062 160.183594 L 127.875 124.09375 C 127.882812 123.964844 128 123.863281 128.132812 123.875 C 128.265625 123.882812 128.363281 124 128.355469 124.132812 L 125.519531 160.21875 C 125.507812 160.34375 125.40625 160.441406 125.28125 160.441406 " fill-opacity="1" fill-rule="nonzero"/><path fill="#debeab" d="M 171.417969 161.78125 C 171.3125 161.78125 171.214844 161.710938 171.183594 161.601562 C 170.566406 159.375 167.65625 141.757812 167.03125 137.25 C 166.714844 134.964844 166.101562 132.0625 165.566406 129.503906 C 164.902344 126.347656 164.332031 123.625 164.386719 122.554688 C 164.390625 122.421875 164.503906 122.316406 164.640625 122.324219 C 164.769531 122.332031 164.871094 122.445312 164.863281 122.578125 C 164.8125 123.589844 165.40625 126.414062 166.035156 129.402344 C 166.574219 131.96875 167.1875 134.882812 167.507812 137.183594 C 168.132812 141.683594 171.03125 159.253906 171.648438 161.476562 C 171.683594 161.601562 171.609375 161.738281 171.480469 161.769531 C 171.460938 161.777344 171.441406 161.78125 171.417969 161.78125 " fill-opacity="1" fill-rule="nonzero"/><path fill="#debeab" d="M 146.089844 108.632812 C 144.832031 108.632812 143.46875 108.511719 141.984375 108.269531 C 139.800781 107.914062 137.847656 106.375 136.332031 103.816406 C 135.203125 101.902344 134.722656 100.125 134.699219 100.046875 C 134.664062 99.921875 134.742188 99.789062 134.871094 99.753906 C 135 99.71875 135.128906 99.796875 135.164062 99.921875 C 135.183594 99.992188 137.109375 106.992188 142.066406 107.796875 C 148.136719 108.785156 152.191406 107.714844 154.453125 104.53125 C 157.003906 100.9375 157.171875 99.382812 157.171875 99.363281 C 157.183594 99.234375 157.300781 99.136719 157.429688 99.144531 C 157.5625 99.15625 157.660156 99.273438 157.652344 99.40625 C 157.648438 99.472656 157.496094 101.074219 154.84375 104.808594 C 153.027344 107.367188 150.144531 108.632812 146.089844 108.632812 " fill-opacity="1" fill-rule="nonzero"/><path fill="#5b4e4e" d="M 114.914062 268.804688 L 112.636719 268.660156 L 118.644531 172.578125 L 120.925781 172.722656 L 114.914062 268.804688 " fill-opacity="1" fill-rule="nonzero"/><path fill="#2d2525" d="M 122.550781 170.667969 C 122.550781 172.226562 121.285156 173.488281 119.726562 173.488281 C 118.164062 173.488281 116.898438 172.226562 116.898438 170.667969 C 116.898438 169.109375 118.164062 167.847656 119.726562 167.847656 C 121.285156 167.847656 122.550781 169.109375 122.550781 170.667969 " fill-opacity="1" fill-rule="nonzero"/><path fill="#bcd17c" d="M 240.929688 186.949219 C 240.929688 186.949219 238.578125 170.445312 242.546875 166.925781 C 246.519531 163.40625 249.175781 163.363281 252.347656 163.40625 C 255.519531 163.449219 260.121094 169.957031 258.664062 173.113281 C 257.207031 176.269531 253.339844 189.078125 253.339844 189.078125 L 240.929688 186.949219 " fill-opacity="1" fill-rule="nonzero"/><path fill="#9aaf5c" d="M 245.101562 184.945312 C 245.015625 184.945312 244.9375 184.902344 244.890625 184.824219 C 244.179688 183.609375 244.945312 182.09375 245.683594 180.628906 C 246.265625 179.476562 246.863281 178.289062 246.761719 177.265625 C 246.648438 176.144531 246.207031 175.34375 245.785156 174.5625 C 245.316406 173.710938 244.835938 172.828125 244.855469 171.601562 C 244.898438 169.417969 244.34375 166.882812 244.335938 166.859375 C 244.304688 166.726562 244.390625 166.597656 244.523438 166.566406 C 244.652344 166.539062 244.78125 166.621094 244.8125 166.75 C 244.835938 166.859375 245.386719 169.367188 245.34375 171.609375 C 245.324219 172.707031 245.757812 173.496094 246.210938 174.328125 C 246.660156 175.152344 247.121094 176 247.246094 177.214844 C 247.359375 178.382812 246.730469 179.632812 246.117188 180.847656 C 245.40625 182.257812 244.734375 183.59375 245.308594 184.578125 C 245.378906 184.691406 245.339844 184.839844 245.222656 184.910156 C 245.1875 184.933594 245.144531 184.945312 245.101562 184.945312 " fill-opacity="1" fill-rule="nonzero"/><path fill="#9aaf5c" d="M 252.589844 183.550781 C 252.5 183.550781 252.417969 183.503906 252.375 183.414062 C 250.40625 179.488281 252.257812 176.316406 254.886719 172.582031 C 255.875 171.171875 256.179688 169.796875 255.785156 168.5 C 255.496094 167.539062 254.921875 166.984375 254.917969 166.980469 C 254.820312 166.890625 254.816406 166.734375 254.910156 166.636719 C 255 166.542969 255.152344 166.535156 255.253906 166.628906 C 255.277344 166.652344 257.867188 169.179688 255.28125 172.859375 C 252.75 176.464844 250.960938 179.511719 252.808594 183.199219 C 252.867188 183.320312 252.820312 183.464844 252.699219 183.523438 C 252.664062 183.542969 252.628906 183.550781 252.589844 183.550781 " fill-opacity="1" fill-rule="nonzero"/><path fill="#9aaf5c" d="M 245.796875 173.167969 C 245.738281 173.167969 245.675781 173.148438 245.632812 173.105469 C 245.53125 173.015625 245.527344 172.859375 245.617188 172.761719 C 247.25 170.953125 248.113281 164.132812 248.121094 164.0625 C 248.140625 163.929688 248.261719 163.835938 248.394531 163.851562 C 248.527344 163.867188 248.621094 163.988281 248.605469 164.125 C 248.570312 164.40625 247.710938 171.164062 245.976562 173.089844 C 245.929688 173.140625 245.859375 173.167969 245.796875 173.167969 " fill-opacity="1" fill-rule="nonzero"/><path fill="#9aaf5c" d="M 252.449219 177.378906 C 252.386719 177.378906 252.328125 177.355469 252.277344 177.304688 C 252.210938 177.238281 250.65625 175.621094 249.925781 172.195312 C 249.183594 168.753906 251.484375 164.175781 251.582031 163.984375 C 251.644531 163.863281 251.789062 163.816406 251.90625 163.875 C 252.027344 163.9375 252.078125 164.082031 252.015625 164.203125 C 251.992188 164.246094 249.695312 168.820312 250.398438 172.09375 C 251.101562 175.371094 252.609375 176.953125 252.625 176.964844 C 252.71875 177.0625 252.71875 177.214844 252.621094 177.3125 C 252.574219 177.355469 252.511719 177.378906 252.449219 177.378906 " fill-opacity="1" fill-rule="nonzero"/><path fill="#9aaf5c" d="M 248.914062 182.597656 C 248.894531 182.597656 248.882812 182.59375 248.867188 182.59375 C 248.734375 182.566406 248.648438 182.441406 248.671875 182.308594 C 249.789062 176.347656 248.25 175.273438 248.238281 175.261719 C 248.125 175.191406 248.089844 175.042969 248.160156 174.929688 C 248.230469 174.816406 248.371094 174.777344 248.488281 174.847656 C 248.539062 174.878906 249.011719 175.179688 249.3125 176.28125 C 249.699219 177.695312 249.644531 179.753906 249.148438 182.398438 C 249.128906 182.515625 249.023438 182.597656 248.914062 182.597656 " fill-opacity="1" fill-rule="nonzero"/><path fill="#9aaf5c" d="M 254.261719 183.550781 C 254.125 183.550781 254.015625 183.445312 254.015625 183.308594 C 253.984375 178.175781 256.246094 175.691406 256.34375 175.585938 C 256.433594 175.488281 256.589844 175.484375 256.683594 175.578125 C 256.785156 175.667969 256.789062 175.820312 256.699219 175.917969 C 256.675781 175.941406 254.472656 178.378906 254.5 183.304688 C 254.5 183.441406 254.394531 183.550781 254.261719 183.550781 " fill-opacity="1" fill-rule="nonzero"/><path fill="#9aaf5c" d="M 243.84375 183.0625 C 243.816406 183.0625 243.78125 183.058594 243.75 183.042969 C 243.625 182.996094 243.570312 182.851562 243.621094 182.726562 C 246.210938 176.613281 242.222656 170.394531 242.183594 170.335938 C 242.113281 170.222656 242.140625 170.074219 242.253906 170 C 242.367188 169.925781 242.519531 169.957031 242.59375 170.070312 C 242.632812 170.132812 246.757812 176.5625 244.070312 182.914062 C 244.03125 183.007812 243.941406 183.0625 243.84375 183.0625 " fill-opacity="1" fill-rule="nonzero"/><path fill="#ffc546" d="M 253.761719 186.105469 C 250.65625 180.339844 246.832031 177.882812 240.832031 178.460938 C 236.125 178.910156 233.359375 180.863281 232.390625 181.683594 C 232.113281 181.917969 231.984375 182.285156 232.042969 182.644531 C 232.136719 183.222656 232.414062 184.050781 233.21875 184.214844 C 234.484375 184.480469 247.097656 186.667969 248.636719 190.546875 C 250.175781 194.425781 250.433594 194.964844 250.015625 196.152344 C 249.667969 197.140625 248.882812 197.207031 248.988281 197.960938 C 248.988281 197.960938 248.988281 197.960938 248.988281 197.964844 C 249.03125 198.304688 249.269531 198.589844 249.582031 198.734375 C 250.253906 199.039062 251.570312 199.523438 251.96875 198.84375 C 252.195312 198.46875 252.128906 198.0625 252.023438 197.628906 C 251.867188 197 251.617188 196.300781 252.019531 195.519531 C 252.707031 194.199219 256.871094 191.871094 253.761719 186.105469 " fill-opacity="1" fill-rule="nonzero"/><path fill="#ad7f63" d="M 252.023438 197.628906 C 250.734375 197.613281 249.742188 197.753906 248.988281 197.960938 C 248.988281 197.960938 248.988281 197.960938 248.988281 197.964844 C 249.03125 198.304688 249.269531 198.589844 249.582031 198.734375 C 250.253906 199.039062 251.570312 199.523438 251.96875 198.84375 C 252.195312 198.46875 252.128906 198.0625 252.023438 197.628906 " fill-opacity="1" fill-rule="nonzero"/><path fill="#ad7f63" d="M 252.03125 190.910156 C 252.007812 190.832031 249.628906 182.855469 243.292969 182.367188 C 236.859375 181.875 232.628906 181.867188 232.585938 181.867188 L 232.585938 181.570312 C 232.628906 181.570312 236.871094 181.578125 243.316406 182.074219 C 249.859375 182.574219 252.292969 190.75 252.316406 190.832031 L 252.03125 190.910156 " fill-opacity="1" fill-rule="nonzero"/><path fill="#ad7f63" d="M 251.070312 184.621094 C 251.042969 184.585938 248.179688 180.769531 243.386719 180.175781 L 243.425781 179.878906 C 248.347656 180.488281 251.28125 184.40625 251.308594 184.445312 L 251.070312 184.621094 " fill-opacity="1" fill-rule="nonzero"/><path fill="#ad7f63" d="M 249.695312 188.960938 C 244.328125 182.851562 234.101562 184.492188 234 184.511719 L 233.949219 184.21875 C 234.054688 184.199219 244.445312 182.53125 249.917969 188.765625 L 249.695312 188.960938 " fill-opacity="1" fill-rule="nonzero"/><path fill="#ccad92" d="M 245.859375 183.832031 L 243.859375 183.632812 C 243.863281 183.617188 244.03125 181.800781 243.789062 179.640625 C 243.578125 177.742188 243 175.175781 241.445312 173.726562 C 240.339844 172.699219 238.878906 172.351562 236.984375 172.671875 L 236.652344 170.695312 C 239.167969 170.269531 241.246094 170.792969 242.816406 172.261719 C 246.597656 175.78125 245.890625 183.503906 245.859375 183.832031 " fill-opacity="1" fill-rule="nonzero"/><path fill="#dfbda0" d="M 230.199219 184.027344 C 230.140625 183.808594 228.832031 178.582031 231.378906 174.726562 C 232.722656 172.699219 234.851562 171.449219 237.714844 171.015625 C 240.273438 170.625 242.394531 171.1875 244.015625 172.679688 C 247.808594 176.175781 247.339844 183.535156 247.320312 183.847656 L 245.3125 183.707031 C 245.316406 183.644531 245.734375 176.992188 242.652344 174.160156 C 241.484375 173.082031 239.96875 172.703125 238.015625 173 C 235.742188 173.347656 234.070312 174.296875 233.058594 175.835938 C 230.996094 178.953125 232.132812 183.484375 232.144531 183.527344 L 230.199219 184.027344 " fill-opacity="1" fill-rule="nonzero"/><path fill="#f0a68e" d="M 242.933594 159.433594 C 242.703125 163.691406 242.949219 169.46875 241.171875 173.90625 C 240.21875 176.273438 235.171875 176.878906 234.203125 176.828125 C 233.234375 176.773438 234.460938 175.675781 235.386719 173.007812 C 236.3125 170.335938 235.589844 169.328125 235.167969 169.886719 C 234.75 170.445312 235.171875 173.382812 233.964844 174.09375 C 232.757812 174.804688 232.382812 174.589844 233.070312 172.683594 C 233.757812 170.78125 233.28125 168.8125 235.328125 166.980469 C 237.371094 165.148438 238.277344 162.558594 238.230469 159.835938 C 238.1875 157.117188 242.933594 159.433594 242.933594 159.433594 " fill-opacity="1" fill-rule="nonzero"/><path fill="#d9e8e8" d="M 236.878906 186.96875 C 239.21875 193.855469 224.28125 192.410156 224.28125 192.410156 C 223.371094 190.246094 222.65625 187.8125 222.09375 185.167969 C 222.0625 185.007812 222.03125 184.851562 222 184.691406 C 221.503906 182.238281 221.128906 179.617188 220.863281 176.855469 C 220.839844 176.625 220.816406 176.390625 220.796875 176.160156 C 220.535156 173.320312 220.371094 170.339844 220.277344 167.269531 C 220.277344 167.269531 219.414062 166.628906 219.425781 164.992188 C 219.429688 164.355469 219.835938 163.785156 220.4375 163.550781 C 221.625 163.082031 223.652344 162.433594 224.222656 163.167969 C 225.050781 164.226562 224.679688 165.707031 224.679688 165.707031 C 224.679688 165.707031 234.542969 180.085938 236.878906 186.96875 " fill-opacity="1" fill-rule="nonzero"/><path fill="#93b0b6" d="M 224.679688 165.707031 L 220.277344 167.269531 C 220.277344 167.269531 219.414062 166.628906 219.425781 164.992188 C 219.429688 164.355469 219.835938 163.785156 220.4375 163.550781 C 221.625 163.082031 223.652344 162.433594 224.222656 163.167969 C 225.050781 164.226562 224.679688 165.707031 224.679688 165.707031 " fill-opacity="1" fill-rule="nonzero"/><path fill="#d9e8e8" d="M 220.535156 166.941406 C 220.4375 166.941406 220.347656 166.871094 220.328125 166.769531 L 219.875 164.226562 C 219.851562 164.113281 219.929688 164.003906 220.046875 163.980469 C 220.160156 163.960938 220.269531 164.035156 220.289062 164.15625 L 220.746094 166.691406 C 220.765625 166.808594 220.6875 166.917969 220.574219 166.941406 C 220.558594 166.941406 220.546875 166.941406 220.535156 166.941406 " fill-opacity="1" fill-rule="nonzero"/><path fill="#d9e8e8" d="M 221.734375 166.515625 C 221.636719 166.515625 221.546875 166.441406 221.527344 166.34375 L 221.070312 163.800781 C 221.050781 163.6875 221.128906 163.578125 221.246094 163.554688 C 221.359375 163.535156 221.46875 163.609375 221.488281 163.726562 L 221.945312 166.265625 C 221.964844 166.382812 221.890625 166.492188 221.773438 166.511719 C 221.761719 166.511719 221.75 166.515625 221.734375 166.515625 " fill-opacity="1" fill-rule="nonzero"/><path fill="#d9e8e8" d="M 222.9375 166.089844 C 222.835938 166.089844 222.746094 166.015625 222.726562 165.914062 L 222.269531 163.375 C 222.25 163.257812 222.328125 163.148438 222.445312 163.128906 C 222.5625 163.109375 222.671875 163.183594 222.691406 163.296875 L 223.144531 165.839844 C 223.164062 165.953125 223.089844 166.0625 222.972656 166.085938 C 222.960938 166.085938 222.949219 166.089844 222.9375 166.089844 " fill-opacity="1" fill-rule="nonzero"/><path fill="#d9e8e8" d="M 224.136719 165.664062 C 224.035156 165.664062 223.945312 165.589844 223.925781 165.488281 L 223.472656 162.949219 C 223.453125 162.832031 223.527344 162.722656 223.644531 162.699219 C 223.757812 162.679688 223.871094 162.757812 223.890625 162.871094 L 224.34375 165.414062 C 224.363281 165.527344 224.289062 165.636719 224.175781 165.660156 C 224.160156 165.660156 224.148438 165.664062 224.136719 165.664062 " fill-opacity="1" fill-rule="nonzero"/><path fill="#93b0b6" d="M 226.738281 183.492188 C 225.824219 184.359375 223.957031 184.863281 222.09375 185.167969 C 221.507812 182.375 221.089844 179.355469 220.796875 176.160156 C 222.734375 175.605469 225.859375 174.898438 227.296875 175.582031 C 229.464844 176.613281 228.925781 181.421875 226.738281 183.492188 " fill-opacity="1" fill-rule="nonzero"/><path fill="#d9e8e8" d="M 225.882812 183.164062 C 225.074219 183.847656 223.582031 184.34375 222 184.691406 C 221.847656 183.941406 221.703125 183.171875 221.578125 182.386719 C 221.417969 181.421875 221.273438 180.433594 221.148438 179.425781 C 221.042969 178.582031 220.949219 177.726562 220.863281 176.855469 C 222.832031 176.300781 225.574219 175.703125 226.851562 176.179688 C 228.976562 176.972656 228.191406 181.226562 225.882812 183.164062 " fill-opacity="1" fill-rule="nonzero"/><path fill="#93b0b6" d="M 225.964844 179.429688 C 226.316406 180.429688 225.355469 181.675781 223.804688 182.226562 C 223.003906 182.511719 222.210938 182.550781 221.578125 182.386719 C 221.417969 181.421875 221.273438 180.433594 221.148438 179.425781 C 221.515625 179.097656 221.984375 178.820312 222.523438 178.632812 C 224.074219 178.082031 225.609375 178.4375 225.964844 179.429688 " fill-opacity="1" fill-rule="nonzero"/><path fill="#dfbda0" d="M 228.105469 182.664062 L 255.691406 182.425781 L 255.691406 219.882812 L 221.871094 219.882812 L 221.871094 182.664062 L 228.105469 182.664062 " fill-opacity="1" fill-rule="nonzero"/><path fill="#dfbda0" d="M 230.199219 184.027344 C 230.171875 183.933594 229.609375 181.703125 229.894531 179.101562 C 230.285156 175.507812 232.097656 172.949219 235.121094 171.714844 L 235.882812 173.570312 C 233.5625 174.519531 232.222656 176.433594 231.894531 179.265625 C 231.640625 181.511719 232.140625 183.507812 232.144531 183.527344 L 230.199219 184.027344 " fill-opacity="1" fill-rule="nonzero"/><path fill="#d4a279" d="M 224.484375 218.054688 C 224.382812 218.054688 224.304688 217.972656 224.304688 217.871094 L 224.28125 183.132812 C 224.28125 183.03125 224.363281 182.949219 224.464844 182.949219 C 224.566406 182.949219 224.644531 183.03125 224.644531 183.132812 L 224.667969 217.871094 C 224.667969 217.972656 224.585938 218.054688 224.484375 218.054688 " fill-opacity="1" fill-rule="nonzero"/><path fill="#d4a279" d="M 227.683594 220.0625 C 227.578125 220.0625 227.5 219.980469 227.5 219.878906 L 227.570312 183.132812 C 227.570312 183.03125 227.648438 182.949219 227.75 182.949219 C 227.851562 182.949219 227.933594 183.03125 227.933594 183.132812 L 227.867188 219.882812 C 227.867188 219.980469 227.78125 220.0625 227.683594 220.0625 " fill-opacity="1" fill-rule="nonzero"/><path fill="#d4a279" d="M 227.683594 220.0625 C 227.648438 220.0625 227.617188 220.054688 227.589844 220.035156 L 224.402344 218.09375 L 222.128906 219.84375 C 222.050781 219.902344 221.933594 219.890625 221.871094 219.808594 C 221.808594 219.730469 221.828125 219.613281 221.90625 219.554688 L 224.28125 217.726562 C 224.34375 217.679688 224.425781 217.675781 224.488281 217.714844 L 227.777344 219.722656 C 227.863281 219.777344 227.890625 219.890625 227.839844 219.972656 C 227.804688 220.03125 227.742188 220.0625 227.683594 220.0625 " fill-opacity="1" fill-rule="nonzero"/><path fill="#d6b192" d="M 249.671875 203.355469 L 232.824219 203.355469 L 232.824219 196.199219 L 249.671875 196.199219 L 249.671875 203.355469 " fill-opacity="1" fill-rule="nonzero"/></svg>