<svg xmlns="http://www.w3.org/2000/svg" xmlns:xlink="http://www.w3.org/1999/xlink" width="500" zoomAndPan="magnify" viewBox="0 0 375 374.999991" height="500" preserveAspectRatio="xMidYMid meet" version="1.0"><defs><clipPath id="dc7237b8a9"><path d="M 7 38 L 370 38 L 370 315.75 L 7 315.75 Z M 7 38 " clip-rule="nonzero"/></clipPath></defs><g clip-path="url(#dc7237b8a9)"><path fill="#ffffff" d="M 367.558594 130.472656 C 367.550781 130.679688 367.542969 130.886719 367.527344 131.09375 C 367.242188 135.351562 367.136719 136.925781 340.835938 164.941406 C 348.886719 170.832031 350.523438 173.480469 351.246094 177.457031 C 351.703125 179.96875 351.566406 183.808594 348.320312 187.863281 C 340.304688 197.882812 281.6875 239.359375 256.859375 256.726562 C 235.492188 271.671875 215.015625 285.652344 199.199219 296.089844 C 170.199219 315.234375 168.03125 315.324219 164.4375 315.476562 C 164.0625 315.488281 163.703125 315.503906 163.335938 315.503906 C 159.777344 315.503906 155.472656 314.105469 133.308594 298.199219 C 109.617188 309.957031 105.886719 309.648438 101.308594 308.019531 C 97.234375 306.570312 94.171875 304.550781 78.589844 279.941406 C 70.683594 267.460938 60.765625 250.957031 51.054688 234.132812 C 41.128906 231.015625 33.015625 228.285156 26.894531 226 C 15.746094 221.84375 10.710938 219.261719 8.375 214.03125 C 5.5625 207.722656 8.683594 201.757812 13.050781 194.613281 C 15.238281 191.035156 18.226562 186.511719 21.964844 181.113281 C 18.601562 174.480469 15.953125 168.929688 14.070312 164.5625 C 10.414062 156.066406 7.972656 149.074219 12.46875 142.929688 C 14.054688 140.757812 16.71875 137.117188 41.738281 121.882812 C 54.476562 114.125 70.527344 104.902344 86.082031 96.398438 C 130.921875 40.261719 134.960938 39.726562 140.054688 39.058594 C 150.464844 37.683594 212.921875 47.519531 225.339844 49.503906 C 245.324219 52.695312 263.691406 55.914062 277.0625 58.566406 C 301.855469 63.480469 305.921875 65.351562 308.945312 70.175781 C 313.167969 76.902344 309.695312 83.410156 304.078125 92.929688 C 312.332031 96.039062 321.5 99.898438 324.761719 101.820312 C 329.515625 104.625 332.257812 108.425781 332.914062 113.117188 C 333.609375 118.101562 331.714844 122.144531 330.699219 124.316406 C 330.636719 124.453125 330.566406 124.582031 330.503906 124.714844 C 341.433594 113.933594 342.824219 113.625 345.582031 113.03125 C 346.003906 112.941406 346.433594 112.867188 346.863281 112.808594 C 353.21875 107.921875 359.960938 108.449219 364.503906 111.71875 C 367.613281 113.957031 369.558594 117.460938 369.835938 121.332031 C 370.085938 124.816406 368.96875 127.964844 367.558594 130.472656 Z M 367.558594 130.472656 C 367.550781 130.679688 367.542969 130.886719 367.527344 131.09375 C 367.242188 135.351562 367.136719 136.925781 340.835938 164.941406 C 348.886719 170.832031 350.523438 173.480469 351.246094 177.457031 C 351.703125 179.96875 351.566406 183.808594 348.320312 187.863281 C 340.304688 197.882812 281.6875 239.359375 256.859375 256.726562 C 235.492188 271.671875 215.015625 285.652344 199.199219 296.089844 C 170.199219 315.234375 168.03125 315.324219 164.4375 315.476562 C 164.0625 315.488281 163.703125 315.503906 163.335938 315.503906 C 159.777344 315.503906 155.472656 314.105469 133.308594 298.199219 C 109.617188 309.957031 105.886719 309.648438 101.308594 308.019531 C 97.234375 306.570312 94.171875 304.550781 78.589844 279.941406 C 70.683594 267.460938 60.765625 250.957031 51.054688 234.132812 C 41.128906 231.015625 33.015625 228.285156 26.894531 226 C 15.746094 221.84375 10.710938 219.261719 8.375 214.03125 C 5.5625 207.722656 8.683594 201.757812 13.050781 194.613281 C 15.238281 191.035156 18.226562 186.511719 21.964844 181.113281 C 18.601562 174.480469 15.953125 168.929688 14.070312 164.5625 C 10.414062 156.066406 7.972656 149.074219 12.46875 142.929688 C 14.054688 140.757812 16.71875 137.117188 41.738281 121.882812 C 54.476562 114.125 70.527344 104.902344 86.082031 96.398438 C 130.921875 40.261719 134.960938 39.726562 140.054688 39.058594 C 150.464844 37.683594 212.921875 47.519531 225.339844 49.503906 C 245.324219 52.695312 263.691406 55.914062 277.0625 58.566406 C 301.855469 63.480469 305.921875 65.351562 308.945312 70.175781 C 313.167969 76.902344 309.695312 83.410156 304.078125 92.929688 C 312.332031 96.039062 321.5 99.898438 324.761719 101.820312 C 329.515625 104.625 332.257812 108.425781 332.914062 113.117188 C 333.609375 118.101562 331.714844 122.144531 330.699219 124.316406 C 330.636719 124.453125 330.566406 124.582031 330.503906 124.714844 C 341.433594 113.933594 342.824219 113.625 345.582031 113.03125 C 346.003906 112.941406 346.433594 112.867188 346.863281 112.808594 C 353.21875 107.921875 359.960938 108.449219 364.503906 111.71875 C 367.613281 113.957031 369.558594 117.460938 369.835938 121.332031 C 370.085938 124.816406 368.96875 127.964844 367.558594 130.472656 Z M 367.558594 130.472656 " fill-opacity="1" fill-rule="nonzero"/></g><path fill="#fb7e3e" d="M 163.953125 303.949219 C 159.710938 304.125 116.785156 272.390625 80.699219 243.710938 C 123.363281 261.273438 177.160156 281.054688 181.40625 279.652344 C 186.453125 277.988281 256.921875 197.25 295.644531 149.429688 C 319.894531 164.3125 339.460938 177.164062 339.890625 179.523438 C 340.976562 185.503906 171.375 303.636719 163.953125 303.949219 Z M 163.953125 303.949219 C 159.710938 304.125 116.785156 272.390625 80.699219 243.710938 C 123.363281 261.273438 177.160156 281.054688 181.40625 279.652344 C 186.453125 277.988281 256.921875 197.25 295.644531 149.429688 C 319.894531 164.3125 339.460938 177.164062 339.890625 179.523438 C 340.976562 185.503906 171.375 303.636719 163.953125 303.949219 Z M 163.953125 303.949219 " fill-opacity="1" fill-rule="nonzero"/><path fill="#375da5" d="M 135.246094 85.449219 C 141.203125 86.664062 246.875 212.699219 244.402344 219.703125 C 241.929688 226.707031 112.457031 299.738281 105.179688 297.148438 C 97.902344 294.5625 17.164062 156.058594 21.785156 149.738281 C 28.714844 140.257812 129.289062 84.234375 135.246094 85.449219 Z M 135.246094 85.449219 C 141.203125 86.664062 246.875 212.699219 244.402344 219.703125 C 241.929688 226.707031 112.457031 299.738281 105.179688 297.148438 C 97.902344 294.5625 17.164062 156.058594 21.785156 149.738281 C 28.714844 140.257812 129.289062 84.234375 135.246094 85.449219 Z M 135.246094 85.449219 " fill-opacity="1" fill-rule="nonzero"/><path fill="#e6e6e6" d="M 177.582031 254.367188 C 170.804688 257.410156 22.0625 216.382812 18.917969 209.332031 C 15.773438 202.277344 133.789062 51.515625 141.554688 50.5 C 153.199219 48.972656 295.9375 71.152344 299.167969 76.300781 C 302.398438 81.453125 184.359375 251.324219 177.582031 254.367188 Z M 177.582031 254.367188 C 170.804688 257.410156 22.0625 216.382812 18.917969 209.332031 C 15.773438 202.277344 133.789062 51.515625 141.554688 50.5 C 153.199219 48.972656 295.9375 71.152344 299.167969 76.300781 C 302.398438 81.453125 184.359375 251.324219 177.582031 254.367188 Z M 351.429688 124.476562 C 350.269531 124.128906 349.054688 124.089844 348 124.3125 C 344.90625 124.976562 256.4375 217.652344 256.183594 219.253906 C 258.734375 219.160156 260.566406 223.347656 262.683594 226.6875 C 267.023438 226.707031 355.796875 133.546875 356.011719 130.316406 C 356.085938 129.246094 355.914062 128.628906 355.292969 127.667969 C 353.742188 124.964844 351.429688 124.476562 351.429688 124.476562 Z M 351.429688 124.476562 " fill-opacity="1" fill-rule="nonzero"/><path fill="#512e19" d="M 147.722656 70.292969 C 153.847656 71.246094 159.980469 72.164062 166.113281 73.0625 C 189.882812 76.554688 213.6875 79.847656 237.382812 83.828125 C 239.6875 84.214844 239.277344 87.832031 236.964844 87.441406 C 230.183594 86.304688 223.394531 85.21875 216.597656 84.171875 C 193.519531 80.617188 170.375 77.503906 147.308594 73.90625 C 144.996094 73.546875 145.40625 69.929688 147.722656 70.292969 Z M 249.515625 110.910156 C 218.046875 104.027344 186.398438 97.824219 154.566406 92.878906 C 146.296875 91.59375 138.007812 90.40625 129.703125 89.375 C 127.375 89.085938 126.957031 92.699219 129.285156 92.988281 C 160.769531 96.894531 192.035156 102.703125 223.109375 109.039062 C 231.785156 110.804688 240.449219 112.632812 249.097656 114.527344 C 251.382812 115.027344 251.785156 111.410156 249.515625 110.910156 Z M 235.511719 133.996094 C 232.441406 132.34375 228.613281 131.675781 225.28125 130.804688 C 218.441406 129.015625 211.554688 127.417969 204.660156 125.859375 C 186.183594 121.683594 167.625 117.871094 149.027344 114.28125 C 138.898438 112.324219 128.75 110.441406 118.578125 108.710938 C 116.269531 108.320312 115.859375 111.9375 118.164062 112.328125 C 136.695312 115.476562 155.152344 119.082031 173.5625 122.875 C 189.746094 126.210938 205.945312 129.601562 221.960938 133.671875 C 224.601562 134.34375 227.242188 135.039062 229.851562 135.824219 C 231.289062 136.253906 232.820312 136.65625 234.148438 137.371094 C 236.210938 138.480469 237.550781 135.09375 235.511719 133.996094 Z M 217.507812 152.5625 C 187.074219 144.597656 156.117188 139.042969 125.300781 132.8125 C 117.898438 131.316406 110.503906 129.761719 103.148438 128.039062 C 100.871094 127.507812 100.476562 131.125 102.734375 131.65625 C 131.359375 138.359375 160.421875 143.066406 189.125 149.441406 C 198.167969 151.449219 207.183594 153.589844 216.144531 155.9375 C 217.105469 156.1875 218.105469 155.917969 218.515625 154.929688 C 218.855469 154.113281 218.457031 152.808594 217.507812 152.5625 Z M 203.253906 174 C 174.800781 165.175781 145.398438 160.222656 116.347656 153.859375 C 107.972656 152.023438 99.625 150.0625 91.335938 147.859375 C 89.097656 147.265625 87.714844 150.636719 89.972656 151.234375 C 118.816406 158.902344 148.324219 163.589844 177.3125 170.628906 C 185.570312 172.632812 193.773438 174.855469 201.890625 177.375 C 204.113281 178.0625 205.492188 174.691406 203.253906 174 Z M 188.945312 194.390625 C 175.136719 190.464844 161.1875 187.007812 147.257812 183.550781 C 130.664062 179.433594 114.039062 175.429688 97.371094 171.621094 C 90.414062 170.03125 83.445312 168.460938 76.449219 167.042969 C 74.152344 166.578125 73.75 170.195312 76.03125 170.65625 C 89.945312 173.476562 103.765625 176.765625 117.570312 180.050781 C 134.105469 183.984375 150.609375 188.03125 167.066406 192.273438 C 173.921875 194.039062 180.773438 195.828125 187.582031 197.765625 C 189.816406 198.402344 191.199219 195.03125 188.945312 194.390625 Z M 124.722656 201.515625 C 103.941406 196.144531 83.203125 190.613281 62.535156 184.824219 C 60.300781 184.199219 58.917969 187.570312 61.171875 188.203125 C 81.839844 193.988281 102.578125 199.519531 123.359375 204.890625 C 125.597656 205.46875 126.984375 202.101562 124.722656 201.515625 Z M 256.183594 219.253906 C 256.183594 219.253906 248 230.414062 249.046875 231.59375 C 250.09375 232.769531 262.683594 226.6875 262.683594 226.6875 C 262.683594 226.6875 263.1875 219.34375 256.183594 219.253906 Z M 355.292969 127.667969 C 357.171875 125.859375 359.398438 122.257812 357.761719 121.082031 C 355.414062 119.390625 351.429688 124.476562 351.429688 124.476562 C 351.429688 124.476562 353.628906 125.246094 355.292969 127.667969 Z M 355.292969 127.667969 " fill-opacity="1" fill-rule="nonzero"/><path fill="#375da5" d="M 288.058594 103.8125 C 287.003906 103.546875 286.15625 102.785156 286.296875 101.589844 C 286.40625 100.613281 287.464844 99.5625 288.519531 99.828125 C 294.738281 101.382812 314.546875 109.195312 318.898438 111.761719 C 320.058594 112.445312 321.28125 113.269531 321.484375 114.714844 C 321.707031 116.316406 320.894531 118.039062 320.234375 119.445312 C 317.882812 124.480469 314.691406 129.183594 311.542969 133.746094 C 308.046875 138.8125 304.371094 143.789062 300.351562 148.460938 C 298.675781 150.410156 295.453125 148.015625 297.140625 146.050781 C 301.417969 141.082031 305.316406 135.769531 309.003906 130.355469 C 311.816406 126.230469 314.734375 121.988281 316.761719 117.402344 C 316.925781 117.023438 317.085938 116.644531 317.226562 116.253906 C 317.300781 116.046875 317.523438 115.148438 317.410156 115.75 C 317.457031 115.5 317.480469 115.257812 317.515625 115.003906 C 317.464844 115.371094 317.527344 115.496094 317.769531 115.828125 C 317.554688 115.535156 318.171875 116.082031 317.65625 115.734375 C 317.433594 115.585938 317.222656 115.425781 317 115.28125 C 316.832031 115.175781 316.660156 115.074219 316.488281 114.96875 C 316.164062 114.777344 316.703125 115.085938 316.351562 114.890625 C 315.984375 114.691406 315.613281 114.492188 315.242188 114.304688 C 310.652344 111.953125 292.664062 104.964844 288.058594 103.8125 Z M 288.058594 103.8125 C 287.003906 103.546875 286.15625 102.785156 286.296875 101.589844 C 286.40625 100.613281 287.464844 99.5625 288.519531 99.828125 C 294.738281 101.382812 314.546875 109.195312 318.898438 111.761719 C 320.058594 112.445312 321.28125 113.269531 321.484375 114.714844 C 321.707031 116.316406 320.894531 118.039062 320.234375 119.445312 C 317.882812 124.480469 314.691406 129.183594 311.542969 133.746094 C 308.046875 138.8125 304.371094 143.789062 300.351562 148.460938 C 298.675781 150.410156 295.453125 148.015625 297.140625 146.050781 C 301.417969 141.082031 305.316406 135.769531 309.003906 130.355469 C 311.816406 126.230469 314.734375 121.988281 316.761719 117.402344 C 316.925781 117.023438 317.085938 116.644531 317.226562 116.253906 C 317.300781 116.046875 317.523438 115.148438 317.410156 115.75 C 317.457031 115.5 317.480469 115.257812 317.515625 115.003906 C 317.464844 115.371094 317.527344 115.496094 317.769531 115.828125 C 317.554688 115.535156 318.171875 116.082031 317.65625 115.734375 C 317.433594 115.585938 317.222656 115.425781 317 115.28125 C 316.832031 115.175781 316.660156 115.074219 316.488281 114.96875 C 316.164062 114.777344 316.703125 115.085938 316.351562 114.890625 C 315.984375 114.691406 315.613281 114.492188 315.242188 114.304688 C 310.652344 111.953125 292.664062 104.964844 288.058594 103.8125 Z M 288.058594 103.8125 " fill-opacity="0.2" fill-rule="nonzero"/></svg>