<svg xmlns="http://www.w3.org/2000/svg" xmlns:xlink="http://www.w3.org/1999/xlink" width="500" zoomAndPan="magnify" viewBox="0 0 375 374.999991" height="500" preserveAspectRatio="xMidYMid meet" version="1.0"><defs><clipPath id="397d049827"><path d="M 6.226562 138 L 135 138 L 135 206 L 6.226562 206 Z M 6.226562 138 " clip-rule="nonzero"/></clipPath><clipPath id="e28c968776"><path d="M 69 202 L 198 202 L 198 268.5 L 69 268.5 Z M 69 202 " clip-rule="nonzero"/></clipPath><clipPath id="7b028aca10"><path d="M 246 192 L 368.476562 192 L 368.476562 266 L 246 266 Z M 246 192 " clip-rule="nonzero"/></clipPath><clipPath id="af90d0f4f4"><path d="M 162 62.25 L 251 62.25 L 251 206 L 162 206 Z M 162 62.25 " clip-rule="nonzero"/></clipPath><clipPath id="2658ca57e3"><path d="M 250.140625 106.816406 C 250.140625 131.023438 206.316406 187.777344 206.316406 205.28125 C 206.316406 187.789062 162.492188 131.023438 162.492188 106.816406 C 162.492188 82.605469 182.113281 62.984375 206.316406 62.984375 C 230.523438 62.984375 250.140625 82.605469 250.140625 106.816406 Z M 250.140625 106.816406 " clip-rule="nonzero"/></clipPath><linearGradient x1="1587.09998" gradientTransform="matrix(0.303723, 0, 0, 0.303779, -275.723319, -382.967211)" y1="1468.00997" x2="1587.09998" gradientUnits="userSpaceOnUse" y2="1936.440068" id="008f680c9a"><stop stop-opacity="1" stop-color="rgb(93.60199%, 0%, 0%)" offset="0"/><stop stop-opacity="1" stop-color="rgb(93.464661%, 0%, 0%)" offset="0.015625"/><stop stop-opacity="1" stop-color="rgb(93.190002%, 0%, 0%)" offset="0.03125"/><stop stop-opacity="1" stop-color="rgb(92.915344%, 0%, 0%)" offset="0.046875"/><stop stop-opacity="1" stop-color="rgb(92.640686%, 0%, 0%)" offset="0.0625"/><stop stop-opacity="1" stop-color="rgb(92.366028%, 0%, 0%)" offset="0.078125"/><stop stop-opacity="1" stop-color="rgb(92.09137%, 0%, 0%)" offset="0.09375"/><stop stop-opacity="1" stop-color="rgb(91.816711%, 0%, 0%)" offset="0.109375"/><stop stop-opacity="1" stop-color="rgb(91.542053%, 0%, 0%)" offset="0.125"/><stop stop-opacity="1" stop-color="rgb(91.267395%, 0%, 0%)" offset="0.140625"/><stop stop-opacity="1" stop-color="rgb(90.992737%, 0%, 0%)" offset="0.15625"/><stop stop-opacity="1" stop-color="rgb(90.718079%, 0%, 0%)" offset="0.171875"/><stop stop-opacity="1" stop-color="rgb(90.44342%, 0%, 0%)" offset="0.1875"/><stop stop-opacity="1" stop-color="rgb(90.168762%, 0%, 0%)" offset="0.203125"/><stop stop-opacity="1" stop-color="rgb(89.894104%, 0%, 0%)" offset="0.21875"/><stop stop-opacity="1" stop-color="rgb(89.619446%, 0%, 0%)" offset="0.234375"/><stop stop-opacity="1" stop-color="rgb(89.344788%, 0%, 0%)" offset="0.25"/><stop stop-opacity="1" stop-color="rgb(89.070129%, 0%, 0%)" offset="0.265625"/><stop stop-opacity="1" stop-color="rgb(88.795471%, 0%, 0%)" offset="0.28125"/><stop stop-opacity="1" stop-color="rgb(88.520813%, 0%, 0%)" offset="0.296875"/><stop stop-opacity="1" stop-color="rgb(88.246155%, 0%, 0%)" offset="0.3125"/><stop stop-opacity="1" stop-color="rgb(87.971497%, 0%, 0%)" offset="0.328125"/><stop stop-opacity="1" stop-color="rgb(87.696838%, 0%, 0%)" offset="0.34375"/><stop stop-opacity="1" stop-color="rgb(87.42218%, 0%, 0%)" offset="0.359375"/><stop stop-opacity="1" stop-color="rgb(87.147522%, 0%, 0%)" offset="0.375"/><stop stop-opacity="1" stop-color="rgb(86.872864%, 0%, 0%)" offset="0.390625"/><stop stop-opacity="1" stop-color="rgb(86.598206%, 0%, 0%)" offset="0.40625"/><stop stop-opacity="1" stop-color="rgb(86.323547%, 0%, 0%)" offset="0.421875"/><stop stop-opacity="1" stop-color="rgb(86.048889%, 0%, 0%)" offset="0.4375"/><stop stop-opacity="1" stop-color="rgb(85.775757%, 0%, 0%)" offset="0.453125"/><stop stop-opacity="1" stop-color="rgb(85.501099%, 0%, 0%)" offset="0.46875"/><stop stop-opacity="1" stop-color="rgb(85.22644%, 0%, 0%)" offset="0.484375"/><stop stop-opacity="1" stop-color="rgb(84.951782%, 0%, 0%)" offset="0.5"/><stop stop-opacity="1" stop-color="rgb(84.677124%, 0%, 0%)" offset="0.515625"/><stop stop-opacity="1" stop-color="rgb(84.402466%, 0%, 0%)" offset="0.53125"/><stop stop-opacity="1" stop-color="rgb(84.127808%, 0%, 0%)" offset="0.546875"/><stop stop-opacity="1" stop-color="rgb(83.853149%, 0%, 0%)" offset="0.5625"/><stop stop-opacity="1" stop-color="rgb(83.578491%, 0%, 0%)" offset="0.578125"/><stop stop-opacity="1" stop-color="rgb(83.303833%, 0%, 0%)" offset="0.59375"/><stop stop-opacity="1" stop-color="rgb(83.029175%, 0%, 0%)" offset="0.609375"/><stop stop-opacity="1" stop-color="rgb(82.754517%, 0%, 0%)" offset="0.625"/><stop stop-opacity="1" stop-color="rgb(82.479858%, 0%, 0%)" offset="0.640625"/><stop stop-opacity="1" stop-color="rgb(82.2052%, 0%, 0%)" offset="0.65625"/><stop stop-opacity="1" stop-color="rgb(81.930542%, 0%, 0%)" offset="0.671875"/><stop stop-opacity="1" stop-color="rgb(81.655884%, 0%, 0%)" offset="0.6875"/><stop stop-opacity="1" stop-color="rgb(81.381226%, 0%, 0%)" offset="0.703125"/><stop stop-opacity="1" stop-color="rgb(81.106567%, 0%, 0%)" offset="0.71875"/><stop stop-opacity="1" stop-color="rgb(80.831909%, 0%, 0%)" offset="0.734375"/><stop stop-opacity="1" stop-color="rgb(80.557251%, 0%, 0%)" offset="0.75"/><stop stop-opacity="1" stop-color="rgb(80.282593%, 0%, 0%)" offset="0.765625"/><stop stop-opacity="1" stop-color="rgb(80.007935%, 0%, 0%)" offset="0.78125"/><stop stop-opacity="1" stop-color="rgb(79.733276%, 0%, 0%)" offset="0.796875"/><stop stop-opacity="1" stop-color="rgb(79.458618%, 0%, 0%)" offset="0.8125"/><stop stop-opacity="1" stop-color="rgb(79.18396%, 0%, 0%)" offset="0.828125"/><stop stop-opacity="1" stop-color="rgb(78.909302%, 0%, 0%)" offset="0.84375"/><stop stop-opacity="1" stop-color="rgb(78.585815%, 0%, 0%)" offset="0.875"/><stop stop-opacity="1" stop-color="rgb(78.399658%, 0%, 0%)" offset="1"/></linearGradient><clipPath id="8d085e11ed"><path d="M 161 62.25 L 252 62.25 L 252 207 L 161 207 Z M 161 62.25 " clip-rule="nonzero"/></clipPath></defs><g clip-path="url(#397d049827)"><path fill="#7fc94c" d="M 6.230469 153.09375 L 58.0625 205.144531 L 134.738281 190.863281 L 82.90625 138.8125 Z M 6.230469 153.09375 " fill-opacity="1" fill-rule="nonzero"/></g><path fill="#f9f792" d="M 58.289062 205.097656 L 69.417969 216.277344 L 145.855469 202.042969 L 134.726562 190.863281 Z M 58.289062 205.097656 " fill-opacity="1" fill-rule="nonzero"/><g clip-path="url(#e28c968776)"><path fill="#4ca0c9" d="M 69.203125 216.335938 L 121.15625 268.507812 L 197.832031 254.226562 L 145.882812 202.054688 Z M 69.203125 216.335938 " fill-opacity="1" fill-rule="nonzero"/></g><path fill="#7fc94c" d="M 82.613281 138.808594 L 134.445312 190.863281 L 237.023438 202.59375 L 185.191406 150.539062 Z M 82.613281 138.808594 " fill-opacity="1" fill-rule="nonzero"/><path fill="#f9f792" d="M 134.441406 190.859375 L 145.574219 202.039062 L 182.117188 206.21875 L 234.066406 258.390625 L 263.878906 261.796875 L 211.925781 209.625 L 248.148438 213.769531 L 237.015625 202.589844 Z M 134.441406 190.859375 " fill-opacity="1" fill-rule="nonzero"/><path fill="#c9a14c" d="M 211.957031 209.644531 L 263.90625 261.816406 L 300.128906 265.957031 L 248.175781 213.785156 Z M 211.957031 209.644531 " fill-opacity="1" fill-rule="nonzero"/><path fill="#4ca0c9" d="M 145.585938 202.054688 L 197.539062 254.226562 L 234.082031 258.402344 L 182.128906 206.230469 Z M 145.585938 202.054688 " fill-opacity="1" fill-rule="nonzero"/><g clip-path="url(#7b028aca10)"><path fill="#c9a14c" d="M 246.761719 213.800781 L 298.710938 265.972656 L 368.445312 244.722656 L 316.496094 192.550781 Z M 246.761719 213.800781 " fill-opacity="1" fill-rule="nonzero"/></g><path fill="#7fc94c" d="M 183.785156 150.558594 L 235.617188 202.609375 L 305.351562 181.359375 L 253.523438 129.308594 Z M 183.785156 150.558594 " fill-opacity="1" fill-rule="nonzero"/><path fill="#f9f792" d="M 235.613281 202.605469 L 246.746094 213.785156 L 316.480469 192.535156 L 305.347656 181.355469 Z M 235.613281 202.605469 " fill-opacity="1" fill-rule="nonzero"/><path fill="#000000" d="M 82.800781 138.894531 L 134.492188 190.929688 L 145.757812 202.199219 L 197.449219 254.230469 L 234.230469 258.539062 L 264.054688 261.855469 L 300.175781 265.832031 L 248.152344 213.796875 L 237.21875 202.527344 L 185.195312 150.496094 Z M 82.800781 138.894531 " fill-opacity="0.1529" fill-rule="nonzero"/><g clip-path="url(#af90d0f4f4)"><g clip-path="url(#2658ca57e3)"><path fill="url(#008f680c9a)" d="M 162.492188 62.984375 L 162.492188 205.28125 L 250.140625 205.28125 L 250.140625 62.984375 Z M 162.492188 62.984375 " fill-rule="nonzero"/></g></g><g clip-path="url(#8d085e11ed)"><path stroke-linecap="square" transform="matrix(0.303723, 0, 0, 0.303779, -275.723298, -382.967231)" fill="none" stroke-linejoin="round" d="M 1731.393966 1612.304355 C 1731.393966 1691.990769 1587.10381 1878.817284 1587.10381 1936.437879 C 1587.10381 1878.855861 1442.813653 1691.990769 1442.813653 1612.304355 C 1442.813653 1532.605081 1507.415619 1468.01498 1587.10381 1468.01498 C 1666.804862 1468.01498 1731.393966 1532.605081 1731.393966 1612.304355 Z M 1731.393966 1612.304355 " stroke="#a00000" stroke-width="4.79" stroke-opacity="1" stroke-miterlimit="4"/></g><path fill="#a00000" d="M 221.390625 105.914062 C 221.390625 106.90625 221.292969 107.882812 221.101562 108.855469 C 220.90625 109.824219 220.621094 110.769531 220.242188 111.683594 C 219.863281 112.597656 219.398438 113.464844 218.851562 114.289062 C 218.300781 115.109375 217.675781 115.871094 216.976562 116.570312 C 216.277344 117.273438 215.515625 117.898438 214.691406 118.445312 C 213.871094 118.996094 213 119.460938 212.085938 119.839844 C 211.171875 120.21875 210.230469 120.503906 209.261719 120.695312 C 208.289062 120.890625 207.3125 120.988281 206.320312 120.988281 C 205.332031 120.988281 204.351562 120.890625 203.382812 120.695312 C 202.410156 120.503906 201.46875 120.21875 200.554688 119.839844 C 199.640625 119.460938 198.773438 118.996094 197.949219 118.445312 C 197.125 117.898438 196.367188 117.273438 195.664062 116.570312 C 194.964844 115.871094 194.339844 115.109375 193.792969 114.289062 C 193.242188 113.464844 192.777344 112.597656 192.398438 111.683594 C 192.019531 110.769531 191.734375 109.824219 191.542969 108.855469 C 191.347656 107.882812 191.253906 106.90625 191.253906 105.914062 C 191.253906 104.925781 191.347656 103.945312 191.542969 102.972656 C 191.734375 102.003906 192.019531 101.0625 192.398438 100.148438 C 192.777344 99.234375 193.242188 98.363281 193.792969 97.542969 C 194.339844 96.71875 194.964844 95.957031 195.664062 95.257812 C 196.367188 94.558594 197.125 93.933594 197.949219 93.382812 C 198.773438 92.832031 199.640625 92.367188 200.554688 91.992188 C 201.46875 91.613281 202.410156 91.324219 203.382812 91.132812 C 204.351562 90.941406 205.332031 90.84375 206.320312 90.84375 C 207.3125 90.84375 208.289062 90.941406 209.261719 91.132812 C 210.230469 91.324219 211.171875 91.613281 212.085938 91.992188 C 213 92.367188 213.871094 92.832031 214.691406 93.382812 C 215.515625 93.933594 216.277344 94.558594 216.976562 95.257812 C 217.675781 95.957031 218.300781 96.71875 218.851562 97.542969 C 219.398438 98.363281 219.863281 99.234375 220.242188 100.148438 C 220.621094 101.0625 220.90625 102.003906 221.101562 102.972656 C 221.292969 103.945312 221.390625 104.925781 221.390625 105.914062 Z M 221.390625 105.914062 " fill-opacity="1" fill-rule="nonzero"/></svg>