<svg xmlns="http://www.w3.org/2000/svg" xmlns:xlink="http://www.w3.org/1999/xlink" width="500" zoomAndPan="magnify" viewBox="0 0 375 374.999991" height="500" preserveAspectRatio="xMidYMid meet" version="1.0"><defs><clipPath id="ea428cc90a"><path d="M 9.828125 5.597656 L 365.328125 5.597656 L 365.328125 361.097656 L 9.828125 361.097656 Z M 9.828125 5.597656 " clip-rule="nonzero"/></clipPath><clipPath id="12ffcaa33a"><path d="M 43 36 L 332 36 L 332 361.097656 L 43 361.097656 Z M 43 36 " clip-rule="nonzero"/></clipPath></defs><g clip-path="url(#ea428cc90a)"><path fill="#92acdf" d="M 365.328125 183.347656 C 365.328125 281.515625 285.75 361.097656 187.578125 361.097656 C 89.410156 361.097656 9.828125 281.515625 9.828125 183.347656 C 9.828125 85.175781 89.410156 5.597656 187.578125 5.597656 C 285.75 5.597656 365.328125 85.175781 365.328125 183.347656 " fill-opacity="1" fill-rule="nonzero"/></g><g clip-path="url(#12ffcaa33a)"><path fill="#cedaf0" d="M 144.710938 211.414062 C 111.816406 241.40625 76.777344 239.65625 56.617188 259.832031 C 51.550781 264.886719 47.34375 275.226562 43.871094 287.953125 C 76.195312 332.285156 128.519531 361.097656 187.578125 361.097656 C 246.636719 361.097656 298.960938 332.285156 331.285156 287.957031 C 327.816406 275.230469 323.609375 264.886719 318.546875 259.832031 C 298.382812 239.65625 263.34375 241.40625 230.4375 211.414062 C 230.636719 211.167969 222.84375 203.808594 222.554688 204.101562 L 222.554688 185.167969 C 231.375 172.855469 237.246094 156.148438 240.707031 139.523438 C 241.058594 140.273438 241.519531 140.796875 242.074219 140.890625 C 244.132812 141.242188 246.714844 136.511719 247.804688 130.300781 C 248.863281 124.292969 248.128906 119.207031 246.207031 118.546875 C 249.140625 103.960938 247.621094 80.679688 241.613281 62.742188 C 235.539062 44.578125 209.261719 37.015625 188.851562 36.460938 L 188.851562 36.429688 C 188.789062 36.429688 188.742188 36.429688 188.683594 36.429688 C 188.34375 36.429688 188.035156 36.429688 187.714844 36.429688 C 187.667969 36.429688 187.621094 36.429688 187.578125 36.429688 C 187.53125 36.429688 187.484375 36.429688 187.441406 36.429688 C 187.117188 36.429688 186.796875 36.429688 186.472656 36.429688 C 186.398438 36.429688 186.355469 36.429688 186.296875 36.429688 L 186.296875 36.460938 C 165.890625 37.015625 139.609375 44.578125 133.546875 62.742188 C 127.53125 80.679688 126.015625 103.960938 128.945312 118.546875 C 127.015625 119.207031 126.285156 124.292969 127.347656 130.300781 C 128.449219 136.511719 131.011719 141.242188 133.078125 140.890625 C 133.640625 140.796875 134.085938 140.273438 134.449219 139.523438 C 137.90625 156.148438 143.78125 172.855469 152.597656 185.167969 L 152.597656 204.101562 C 152.304688 203.808594 144.507812 211.167969 144.710938 211.414062 " fill-opacity="1" fill-rule="nonzero"/></g></svg>