<svg xmlns="http://www.w3.org/2000/svg" xmlns:xlink="http://www.w3.org/1999/xlink" width="500" zoomAndPan="magnify" viewBox="0 0 375 374.999991" height="500" preserveAspectRatio="xMidYMid meet" version="1.0"><defs><clipPath id="bad8f8be2a"><path d="M 24 78.410156 L 288 78.410156 L 288 328.910156 L 24 328.910156 Z M 24 78.410156 " clip-rule="nonzero"/></clipPath><clipPath id="bb7cf714b5"><path d="M 24 151 L 355 151 L 355 328.910156 L 24 328.910156 Z M 24 151 " clip-rule="nonzero"/></clipPath></defs><g clip-path="url(#bad8f8be2a)"><path fill="#415a77" d="M 24.449219 328.878906 L 24.449219 116.96875 C 24.449219 116.96875 22.980469 102.921875 60.070312 104.125 L 60.070312 78.441406 C 60.070312 78.441406 101.382812 80.046875 123.847656 78.441406 L 141.496094 102.519531 L 259.023438 107.335938 C 259.023438 107.335938 289.90625 108.660156 287.90625 129.8125 C 285.902344 150.964844 287.582031 328.875 287.582031 328.875 L 24.449219 328.875 Z M 24.449219 328.878906 " fill-opacity="1" fill-rule="nonzero"/></g><path fill="#ffffff" d="M 46.699219 116.433594 L 251 116.433594 L 251 314.429688 L 46.699219 314.429688 Z M 46.699219 116.433594 " fill-opacity="1" fill-rule="nonzero"/><g clip-path="url(#bb7cf714b5)"><path fill="#778da9" d="M 24.449219 328.878906 C 24.449219 328.878906 80.601562 169.945312 104.671875 160.3125 C 128.738281 150.683594 335.71875 147.46875 353.367188 160.3125 C 353.367188 160.3125 366.203125 174.761719 287.582031 328.878906 Z M 24.449219 328.878906 " fill-opacity="1" fill-rule="nonzero"/></g></svg>